<?xml version="1.0" standalone="no"?>
<!DOCTYPE svg PUBLIC "-//W3C//DTD SVG 1.1//EN" "http://www.w3.org/Graphics/SVG/1.1/DTD/svg11.dtd" >
<svg xmlns="http://www.w3.org/2000/svg">
<metadata>
This is a custom SVG webfont generated by Font Squirrel.
Copyright   : 2003 GType  Designed and digitized by Nick Cooke  01943 461 808
</metadata>
<defs>
<font id="ChevinLightRegular" horiz-adv-x="1024" >
<font-face units-per-em="2048" ascent="1638" descent="-410" />
<missing-glyph horiz-adv-x="589" />
<glyph unicode=" "  horiz-adv-x="589" />
<glyph unicode="&#x09;" horiz-adv-x="589" />
<glyph unicode="&#xa0;" horiz-adv-x="589" />
<glyph unicode="!" horiz-adv-x="536" d="M180 78q0 41 29 69.5t69.5 28.5t69.5 -28.5t29 -69.5t-28.5 -69.5t-69.5 -28.5q-39 0 -69 29.5t-30 68.5zM203 1432q-2 80 75.5 79.5t75.5 -79.5l-16 -975q-2 -68 -59.5 -68t-59.5 68z" />
<glyph unicode="&#x22;" horiz-adv-x="669" d="M96 1434q-4 78 72 77.5t72 -77.5l-15 -269q-4 -61 -57 -61t-57 61zM424 1434q-4 78 71.5 77.5t71.5 -77.5l-14 -269q-4 -61 -57.5 -61t-57.5 61z" />
<glyph unicode="#" horiz-adv-x="1540" d="M55 455q0 63 64 63h272l68 451h-252q-63 0 -64 61q0 63 64 64h270l55 364q4 27 26 42q17 12 37 12q5 0 11 -1q55 -9 55 -57q0 -8 -2 -16l-53 -344h412l55 364q9 55 56 55q8 0 16 -2q55 -9 55 -57q0 -8 -2 -16l-51 -344h250q63 0 63 -64q0 -61 -63 -61h-271l-67 -451h250 q63 0 63 -63q0 -25 -18.5 -43.5t-44.5 -18.5h-269l-55 -360q-9 -53 -57 -53q-8 0 -17 2q-53 7 -52 54q0 8 1 17l51 340h-411l-54 -360q-7 -53 -56 -53q-8 0 -17 2q-55 7 -55 55q0 8 1 16l52 340h-252q-27 0 -45.5 18.5t-18.5 43.5zM518 518h412l67 451h-409z" />
<glyph unicode="$" horiz-adv-x="1173" d="M111 111q0 66 61 65q8 0 144.5 -36t224.5 -36q197 0 299 89q96 82 96 225q0 182 -197 244q-41 12 -219 47q-154 29 -223 61q-186 86 -186 313q0 176 106.5 289t282.5 133v154q0 59 59 59t59 -59v-150q176 -4 304 -59q43 -20 43 -59q0 -68 -64 -68q-12 0 -128 31.5 t-191 31.5q-156 0 -246 -79.5t-90 -212.5q0 -178 205 -238q2 0 245 -49q164 -35 238 -84q137 -92 137 -297q0 -193 -120 -309.5t-332 -132.5v-152q0 -59 -59.5 -59t-59.5 59v150q-205 2 -348 67q-41 19 -41 62z" />
<glyph unicode="%" horiz-adv-x="1126" d="M119 1151v135q0 100 61.5 162.5t157.5 62.5q94 0 155.5 -62.5t61.5 -162.5v-135q0 -102 -61.5 -163.5t-155.5 -61.5q-96 0 -157.5 61.5t-61.5 163.5zM217 1145q0 -129 121 -129q119 0 119 129v145q0 131 -119 131q-121 0 -121 -131v-145zM254 47l524 1434q12 34 40 34 q11 0 24 -6q35 -14 35 -42q0 -10 -5 -21l-524 -1434q-13 -34 -40 -34q-11 0 -23 6q-36 10 -36 39q0 11 5 24zM571 207v135q0 100 61.5 162.5t155.5 62.5q96 0 158 -61.5t62 -163.5v-135q0 -102 -61.5 -163.5t-158.5 -61.5q-94 0 -155.5 61.5t-61.5 163.5zM670 201 q0 -129 118 -129q123 0 123 129v147q0 127 -123 127q-119 0 -118 -127v-147z" />
<glyph unicode="&#x26;" horiz-adv-x="1263" d="M102 399q0 262 332 459q-164 211 -164 338q0 154 111 242q94 74 225 73q139 0 230 -51q55 -33 93 -81t38 -79q0 -27 -19.5 -46t-46.5 -19q-20 0 -57 41q-47 53 -62 63q-74 51 -176 52q-78 0 -135 -50q-66 -55 -65 -149q0 -63 57 -152q12 -18 100 -135l398 -522 q68 127 77 309q4 61 66 62q27 0 46 -19.5t17 -48.5q-8 -238 -120 -416l139 -182q14 -18 14 -43q0 -27 -19.5 -46t-45.5 -19q-31 0 -54 28l-118 156q-168 -184 -437 -184q-203 0 -319 131q-105 116 -105 288zM231 401q0 -125 76 -206q82 -92 223 -93q221 0 355 164l-375 494 q-279 -152 -279 -359z" />
<glyph unicode="'" horiz-adv-x="350" d="M102 1434q-4 78 72 77q78 0 74 -77l-15 -269q-4 -61 -59 -61q-53 0 -57 61z" />
<glyph unicode="(" horiz-adv-x="559" d="M98 745q0 545 244 914q20 31 53 31q66 0 66 -64q0 -25 -12 -43q-215 -334 -216 -838q0 -242 54 -438q47 -170 166 -409q8 -16 8 -33q0 -63 -66 -64q-33 0 -53 31q-244 364 -244 913z" />
<glyph unicode=")" horiz-adv-x="559" d="M98 -135q0 20 13 41q215 340 215 839.5t-215 837.5q-12 18 -13 43q0 63 66 64q35 0 55 -31q242 -360 242 -914q0 -555 -242 -913q-20 -31 -55 -31q-66 1 -66 64z" />
<glyph unicode="*" horiz-adv-x="980" d="M100 1206q0 10 4 23q14 45 58 45q12 0 26 -6l252 -97l-12 271q-2 68 61 67q66 0 64 -67l-12 -271l252 97q14 6 26 6q43 0 58 -45q4 -12 4 -23q0 -43 -50 -57l-260 -72l168 -211q16 -20 17 -45q0 -23 -20.5 -42t-43.5 -19q-33 0 -53 33l-150 225l-147 -225 q-20 -33 -53 -33q-23 0 -43.5 19.5t-20.5 41.5q0 25 17 45l168 211l-260 72q-50 14 -50 57z" />
<glyph unicode="+" horiz-adv-x="1095" d="M125 559.5q0 63.5 63 63.5h297v297q0 61 62 61q63 0 63 -61v-297h297q63 0 63.5 -63.5t-63.5 -63.5h-297v-297q0 -61 -63 -62q-61 0 -62 62v297h-297q-63 0 -63 63.5z" />
<glyph unicode="," horiz-adv-x="448" d="M111 82q0 41 28.5 68.5t69.5 27.5q100 0 100 -119q0 -94 -65 -168q-55 -63 -97 -63q-35 0 -34 35q0 14 33.5 45t39.5 80q-75 16 -75 94z" />
<glyph unicode="-" horiz-adv-x="985" d="M154 600q0 61 61 62h555q61 0 61 -62q0 -27 -18 -45t-43 -18h-555q-25 0 -43 18t-18 45z" />
<glyph unicode="." horiz-adv-x="458" d="M123 80q0 41 28.5 69.5t69.5 28.5t69.5 -28.5t28.5 -69.5t-28.5 -69.5t-69.5 -28.5q-39 0 -68.5 29.5t-29.5 68.5z" />
<glyph unicode="/" horiz-adv-x="630" d="M-27 -92q0 10 2 18l539 1678q14 43 59 43q63 0 64 -64q0 -10 -2 -18l-539 -1678q-14 -45 -59 -45q-64 0 -64 66z" />
<glyph unicode="0" horiz-adv-x="1146" d="M111 522v449q0 231 106 375q123 166 356.5 165.5t356.5 -165.5q106 -143 106 -375v-449q0 -231 -106 -377q-123 -164 -356.5 -163.5t-356.5 163.5q-106 146 -106 377zM246 526q0 -190 78 -299q84 -119 249 -118q164 0 250 118q78 109 78 299v439q0 190 -78 301 q-86 119 -250 118q-166 0 -249 -118q-78 -111 -78 -301v-439z" />
<glyph unicode="1" horiz-adv-x="1146" d="M74 1100q0 35 28 55l496 342q16 14 43 14q68 0 68 -67v-1315h227q63 0 63 -66q0 -63 -63 -63h-735q-27 0 -46.5 18.5t-19.5 45t19.5 46t46.5 19.5h372v1196l-399 -276q-16 -12 -37 -13q-63 1 -63 64z" />
<glyph unicode="2" horiz-adv-x="1146" d="M133 66q0 229 209 419l346 271q182 160 182 327q0 133 -69 213q-80 90 -226 90q-123 0 -215 -47q-37 -18 -81 -55q-31 -25 -50 -24q-27 0 -46 20t-19 47q0 29 22 49q150 135 392 135q211 0 325 -131q102 -117 103 -297q0 -203 -175 -368l-333 -264q-193 -158 -222 -322 h666q63 0 64 -63q0 -66 -64 -66h-743q-66 0 -66 66z" />
<glyph unicode="3" horiz-adv-x="1146" d="M90 180q0 27 18.5 45.5t43.5 18.5q16 0 45 -25q45 -39 75 -57q98 -61 240 -62q162 0 252 93q82 86 82 221q0 287 -363 293q-66 2 -65.5 59t65.5 61q131 8 217 64q117 72 117 211q0 119 -61 196q-78 92 -230 93q-123 0 -221 -58q-33 -18 -72 -55q-27 -25 -47 -25 q-59 0 -59 60q0 25 25 51q137 147 376 147q215 0 324 -133q90 -109 90 -266q0 -248 -244 -336q281 -82 281 -370q0 -178 -115 -295q-127 -129 -348 -129q-252 0 -403 151q-23 22 -23 47z" />
<glyph unicode="4" horiz-adv-x="1146" d="M115 371q0 14 8 32l469 1065q18 41 61 41q68 0 68 -69q0 -12 -6 -25l-432 -981h419v334q0 66 68 66q66 0 66 -66v-334h131q61 0 61 -63q0 -66 -61 -66h-131v-258q0 -68 -66 -67q-27 0 -47.5 20t-20.5 47v258h-524q-63 0 -63 66z" />
<glyph unicode="5" horiz-adv-x="1146" d="M170 133q0 27 19.5 47.5t46.5 20.5q20 0 38 -15q100 -80 250 -80q170 0 258 103q78 90 78 237q0 336 -303 336q-100 0 -170 -51q-18 -14 -68 -61q-25 -25 -51 -25q-66 0 -63 68l22 717q2 63 68 63h553q66 0 65.5 -63.5t-65.5 -63.5h-494l-16 -535q94 74 225 74 q203 0 317.5 -119.5t114.5 -339.5q0 -193 -110 -319q-127 -145 -361 -145q-197 0 -323 96q-31 22 -31 55z" />
<glyph unicode="6" horiz-adv-x="1146" d="M129 530q0 463 496 959q20 20 47 20q70 0 69 -67q0 -25 -22 -47q-289 -283 -395 -580q117 78 249 78q188 0 308 -109q131 -121 131 -340q0 -211 -122 -336.5t-323 -125.5q-199 0 -318.5 147t-119.5 401zM264 530q0 -211 90 -323q82 -100 213 -101q143 0 226.5 89.5 t83.5 246.5q0 160 -91 248q-82 82 -221 82q-158 0 -289 -119q-12 -62 -12 -123z" />
<glyph unicode="7" horiz-adv-x="1146" d="M119 1429.5q0 63.5 63 63.5h768q63 0 64 -63q0 -23 -8 -44l-533 -1361q-16 -43 -63 -43q-27 0 -46.5 19t-19.5 48q0 12 4 25l510 1292h-676q-63 0 -63 63.5z" />
<glyph unicode="8" horiz-adv-x="1146" d="M92 381q0 147 101 250q74 74 235 145q-264 121 -264 352q0 182 123 287q113 94 286 94q176 0 287 -96q117 -104 117 -280q0 -215 -258 -345q162 -68 233 -141q102 -102 103 -264q0 -182 -133.5 -291.5t-348.5 -109.5q-211 0 -342 102q-139 109 -139 297zM227 389 q0 -131 95.5 -208t248.5 -77q162 0 255.5 78t93.5 205q0 133 -107 215q-66 47 -244 115q-170 -70 -235 -121q-107 -84 -107 -207zM297 1124q0 -109 84 -180q59 -51 197 -102q129 55 188 108q80 72 80 172q0 127 -75 197t-198 70q-121 0 -198.5 -70t-77.5 -195z" />
<glyph unicode="9" horiz-adv-x="1146" d="M145 1047q0 213 122 337.5t323 124.5q199 0 317.5 -147.5t118.5 -400.5q0 -467 -496 -959q-20 -20 -47 -20q-29 0 -48 20.5t-19 48.5q0 25 20 45q293 289 398 580q-117 -78 -250 -78q-188 0 -308 111q-131 121 -131 338zM281 1049q0 -160 88 -246q82 -82 221 -82 q158 0 291 117q10 68 10 123q0 213 -90 323q-80 100 -213 100q-141 0 -224 -88.5t-83 -246.5z" />
<glyph unicode=":" horiz-adv-x="458" d="M123 80q0 41 28.5 69.5t69.5 28.5t69.5 -28.5t28.5 -69.5t-28.5 -69.5t-69.5 -28.5q-39 0 -68.5 29.5t-29.5 68.5zM123 729q0 41 28.5 69.5t69.5 28.5t69.5 -28.5t28.5 -69.5t-28.5 -69.5t-69.5 -28.5t-69.5 28.5t-28.5 69.5z" />
<glyph unicode=";" horiz-adv-x="450" d="M113 729q0 41 29.5 69.5t68.5 28.5q41 0 69.5 -28.5t28.5 -69.5q0 -39 -28.5 -68.5t-69.5 -29.5q-39 0 -68.5 29.5t-29.5 68.5zM113 82q0 41 28.5 68.5t69.5 27.5q100 0 100 -119q0 -94 -65 -168q-55 -63 -96 -63q-35 0 -35 35q0 14 33.5 45t39.5 80q-75 16 -75 94z" />
<glyph unicode="&#x3c;" horiz-adv-x="864" d="M125 559q0 27 25 49l497 465q16 16 39 17q61 0 62 -62q0 -27 -19 -43l-457 -426l457 -426q18 -16 19 -43q0 -59 -60 -59q-23 0 -41 16l-497 463q-25 22 -25 49z" />
<glyph unicode="=" horiz-adv-x="1189" d="M172 381q0 25 18.5 43t45.5 18h718q27 0 45.5 -18t18.5 -43q0 -63 -64 -64h-718q-64 1 -64 64zM172 748q0 25 18.5 43t45.5 18h718q27 0 45.5 -18.5t18.5 -42.5q0 -63 -64 -64h-718q-64 1 -64 64z" />
<glyph unicode="&#x3e;" horiz-adv-x="864" d="M117 90q0 25 18 43l455 426l-455 426q-18 18 -18 43q0 61 61 62q23 0 39 -17l498 -465q25 -23 24.5 -49.5t-24.5 -48.5l-498 -463q-18 -16 -41 -16q-59 0 -59 59z" />
<glyph unicode="?" horiz-adv-x="999" d="M90 1329q0 37 72 90q123 92 317 92q154 0 269 -90q133 -109 133 -299q0 -129 -64 -221q-43 -63 -170 -166q-102 -84 -137 -153q-25 -49 -25 -125q0 -63 -63.5 -63.5t-63.5 65.5q0 117 45 196q41 72 142 154q119 96 151 143q49 66 49 162q0 133 -90 209q-76 66 -184 66 q-170 0 -276 -107q-16 -16 -39 -16q-66 0 -66 63zM326 80q0 41 28.5 69.5t69.5 28.5t69.5 -28.5t28.5 -69.5t-28.5 -69.5t-69.5 -28.5q-39 0 -68.5 29.5t-29.5 68.5z" />
<glyph unicode="@" horiz-adv-x="1701" d="M139 623q0 305 183 526q203 250 542 250q360 0 543 -195q154 -162 154 -416q0 -190 -101 -327q-109 -143 -268 -144q-152 0 -199 146q-102 -141 -262 -141q-104 0 -162 81q-49 70 -49 179q0 166 98 299q109 147 277 147q111 0 221 -37q35 -11 36 -46q0 -10 -3 -21 l-43 -193q-23 -100 -23 -164q0 -150 113 -149q109 0 185.5 108.5t76.5 259.5q0 217 -127 353q-154 162 -465 161q-295 0 -467 -219q-154 -193 -153 -456q0 -260 127 -410q147 -174 442 -174q106 0 207 22q74 16 78 17q49 0 49 -51q0 -39 -47 -52q-147 -37 -287 -36 q-342 0 -518 204q-158 181 -158 478zM633 584q0 -150 110 -150q94 0 162 76q61 70 84 176l47 217q-72 23 -143 23q-111 0 -188 -113q-72 -102 -72 -229z" />
<glyph unicode="A" horiz-adv-x="1148" d="M31 47q0 8 2 19q174 676 456 1368q33 78 86.5 77.5t86.5 -77.5q276 -680 454 -1368q2 -10 2 -21q0 -63 -67 -63q-51 0 -66 51q-53 207 -92 334h-639q-66 -215 -94 -334q-12 -51 -62 -51q-67 -1 -67 65zM291 494h565q-123 391 -283 794q-161 -399 -282 -794z" />
<glyph unicode="B" horiz-adv-x="1280" d="M174 68v1357q0 29 20.5 48.5t47.5 19.5h420q217 0 329 -107q100 -96 101 -258v-63q0 -215 -203 -297q266 -78 266 -332v-55q0 -381 -455 -381h-458q-27 0 -47.5 20.5t-20.5 47.5zM309 127h391q180 0 256 74q63 61 64 188v51q0 121 -94.5 187.5t-261.5 66.5h-355v-567z M309 817h242q406 0 405 240v61q0 246 -297 246h-350v-547z" />
<glyph unicode="C" horiz-adv-x="1126" d="M139 623v247q0 293 121 459q133 182 402 182q233 0 354 -139q23 -27 22 -49q0 -61 -63 -63q-18 0 -74 47q-92 80 -239 79q-387 0 -388 -518v-245q0 -264 89.5 -390.5t285.5 -126.5q152 0 256 84l39 32q18 15 37 16h4q58 0 57 -62q0 -25 -22 -49q-135 -145 -371 -145 q-510 0 -510 641z" />
<glyph unicode="D" horiz-adv-x="1312" d="M174 68v1357q0 29 20.5 48.5t47.5 19.5h405q526 0 527 -557v-383q0 -553 -527 -553h-405q-27 0 -47.5 20.5t-20.5 47.5zM309 127h334q395 0 395 428v379q0 428 -395 428h-334v-1235z" />
<glyph unicode="E" horiz-adv-x="1122" d="M174 66v1361q0 27 19.5 46.5t46.5 19.5h706q27 0 45.5 -19.5t18.5 -46.5q0 -66 -64 -65h-637v-553h580q63 0 63 -63.5t-63 -63.5h-580v-553h668q63 0 63 -63q0 -66 -63 -66h-737q-27 0 -46.5 19.5t-19.5 46.5z" />
<glyph unicode="F" horiz-adv-x="1050" d="M174 49v1378q0 27 19.5 46.5t46.5 19.5h688q27 0 46 -19.5t19 -46.5q0 -66 -65 -65h-619v-553h520q63 0 63.5 -63.5t-63.5 -63.5h-520v-633q0 -68 -67 -67q-27 0 -47.5 20t-20.5 47z" />
<glyph unicode="G" horiz-adv-x="1245" d="M139 623v247q0 295 121 459q133 182 404 182q238 0 356 -141q23 -20 22 -47q0 -61 -65 -63q-18 0 -74 47q-94 80 -239 79q-389 0 -390 -518v-245q0 -266 89.5 -391.5t285.5 -125.5q342 0 342 381v131h-299q-63 0 -63 63.5t63 63.5h365q66 0 65 -67v-189q0 -233 -114 -366 q-123 -141 -357 -141q-512 0 -512 641z" />
<glyph unicode="H" horiz-adv-x="1370" d="M174 49v1395q0 29 20.5 48t47.5 19q68 0 67 -67v-647h750v647q0 29 20.5 48t46.5 19q68 0 68 -67v-1395q0 -68 -68 -67q-27 0 -47 20.5t-20 46.5v621h-750v-621q0 -68 -67 -67q-27 0 -47.5 20t-20.5 47z" />
<glyph unicode="I" horiz-adv-x="485" d="M174 49v1395q0 29 20.5 48t47.5 19q68 0 67 -67v-1395q0 -68 -67 -67q-27 0 -47.5 20t-20.5 47z" />
<glyph unicode="J" horiz-adv-x="870" d="M10 63q0 66 64 66q-4 0 67 -12q35 -6 99 -6q184 0 263 95t79 314v924q0 29 20.5 48t46.5 19q29 0 48.5 -19t19.5 -48v-924q0 -539 -477 -538q-94 0 -177 18q-53 12 -53 63z" />
<glyph unicode="K" horiz-adv-x="1134" d="M174 49v1395q0 29 20.5 48t47.5 19q68 0 67 -67v-744l639 787q20 25 51 24q27 0 46.5 -21.5t19.5 -47.5q0 -23 -14 -41l-463 -553q289 -399 499 -766q10 -16 11 -35q0 -27 -22.5 -46t-49.5 -19q-37 0 -57 36q-215 373 -469 727l-191 -229v-467q0 -68 -67 -67 q-27 0 -47.5 20t-20.5 47z" />
<glyph unicode="L" horiz-adv-x="1052" d="M174 66v1378q0 29 20.5 48t47.5 19q68 0 67 -67v-1315h666q27 0 46 -18.5t19 -45t-19.5 -46t-45.5 -19.5h-735q-27 0 -46.5 19.5t-19.5 46.5z" />
<glyph unicode="M" horiz-adv-x="1587" d="M174 45v1403q0 63 68 63q47 0 65 -41l488 -1036l489 1039q18 39 62 38q66 0 65 -63v-1403q0 -63 -63.5 -63t-63.5 63v1159l-430 -919q-18 -39 -63 -39q-43 0 -62 39l-428 917v-1157q0 -63 -63.5 -63t-63.5 63z" />
<glyph unicode="N" horiz-adv-x="1363" d="M174 45v1403q0 63 68 63q43 0 67 -38l754 -1217v1192q0 63 63.5 63t63.5 -63v-1403q0 -63 -68 -63q-43 0 -65 34l-756 1219v-1190q0 -63 -63.5 -63t-63.5 63z" />
<glyph unicode="O" horiz-adv-x="1280" d="M139 535v423q0 236 111 381q129 172 391 172q260 0 391 -172q109 -145 109 -381v-423q0 -236 -109 -381q-131 -172 -391 -172q-262 0 -391 172q-111 145 -111 381zM274 535q0 -428 367 -429q365 0 365 429v423q0 428 -365 428q-367 0 -367 -428v-423z" />
<glyph unicode="P" horiz-adv-x="1198" d="M174 49v1376q0 29 20.5 48.5t47.5 19.5h395q242 0 367 -127q104 -104 104 -268v-103q0 -172 -120 -278.5t-329 -106.5h-350v-561q0 -68 -67 -67q-27 0 -47.5 20t-20.5 47zM309 735h346q156 0 242 78q76 72 76 184v101q0 109 -70 178q-90 88 -272 88h-322v-629z" />
<glyph unicode="Q" horiz-adv-x="1280" d="M139 535v423q0 236 111 381q129 172 391 172q260 0 391 -172q109 -145 109 -381v-423q0 -225 -101 -369l136 -119q23 -18 22 -45q0 -25 -20.5 -45t-44.5 -20q-23 0 -43 18l-134 123q-123 -96 -315 -96q-262 0 -391 172q-111 145 -111 381zM274 535q0 -428 367 -429 q131 0 219 62l-84 76q-23 20 -22 47q0 59 57 59q25 0 45 -18l86 -76q63 106 64 279v423q0 428 -365 428q-367 0 -367 -428v-423z" />
<glyph unicode="R" horiz-adv-x="1224" d="M174 49v1376q0 29 20.5 48.5t47.5 19.5h393q240 0 362 -113q111 -100 111 -264v-92q0 -131 -78 -229q-88 -111 -252 -142q213 -334 336 -573q8 -16 8 -33q0 -27 -21.5 -46t-49.5 -19q-37 0 -58 38q-143 279 -362 615h-322v-586q0 -68 -67 -67q-27 0 -47.5 20t-20.5 47z M309 760h326q172 0 262 86q76 72 76 178v92q0 104 -72 170q-88 80 -268 80h-324v-606z" />
<glyph unicode="S" horiz-adv-x="1173" d="M111 111q0 68 61 67q12 0 59 -18q57 -25 121 -37q90 -18 189 -19q197 0 299 89q96 84 96 227q0 178 -199 242q-39 12 -217 47q-154 29 -223 61q-186 86 -186 315q0 197 129 311.5t335 114.5q209 0 347 -61q43 -18 43 -59q0 -68 -64 -68q-12 0 -128 31.5t-191 31.5 q-156 0 -246 -79.5t-90 -212.5q0 -178 205 -238q12 -4 247 -49q160 -33 234 -82q139 -94 139 -297q0 -209 -140 -327.5t-384 -118.5q-238 0 -395 69q-41 19 -41 60z" />
<glyph unicode="T" horiz-adv-x="1142" d="M14 1427q0 27 19.5 46.5t46.5 19.5h983q27 0 46 -19.5t19 -46.5q0 -66 -65 -65h-424v-1313q0 -27 -19.5 -47t-48.5 -20q-27 0 -47 20.5t-20 46.5v1313h-424q-66 -1 -66 65z" />
<glyph unicode="U" horiz-adv-x="1282" d="M139 485v959q0 29 20.5 48t47.5 19q29 0 48 -19t19 -48v-957q0 -172 86 -270q94 -113 281 -113q184 0 281 113q84 98 84 270v957q0 29 20.5 48t46.5 19q68 0 68 -67v-959q0 -221 -121 -356q-133 -147 -379 -147q-248 0 -381 147q-121 135 -121 356z" />
<glyph unicode="V" horiz-adv-x="1148" d="M29 1446q0 29 21.5 47t47.5 18q49 0 64 -49q184 -627 416 -1255q260 715 421 1259q12 45 58 45q63 0 63 -61q0 -8 -2 -18q-166 -563 -469 -1385q-25 -66 -76 -65q-55 0 -79 65q-289 788 -461 1376q-4 13 -4 23z" />
<glyph unicode="W" horiz-adv-x="1759" d="M39 1448q0 63 70 63q51 0 63 -53q139 -618 317 -1241q172 621 308 1215q18 80 84 79q63 0 82 -79q143 -635 307 -1215q190 678 317 1241q12 53 64 53q70 0 69 -63v-8q-2 -6 -2 -10q-156 -678 -356 -1371q-23 -78 -88.5 -77.5t-87.5 77.5q-162 561 -307 1174 q-117 -498 -308 -1174q-23 -78 -86 -77q-66 0 -88 77l-198 717q-160 598 -160 672z" />
<glyph unicode="X" horiz-adv-x="1103" d="M14 47q0 16 11 35q195 332 448 696q-217 317 -391 633q-8 14 -8 35q0 27 20.5 46t46.5 19q37 0 58 -36q164 -303 354 -580q195 287 354 580q20 37 56 36q29 0 49 -19t20 -46q0 -20 -8 -35q-174 -315 -391 -633q283 -410 448 -696q10 -18 11 -35q0 -27 -21.5 -46 t-48.5 -19q-37 0 -55 32q-186 319 -414 648q-236 -340 -414 -646q-20 -35 -55 -34q-27 0 -48.5 19t-21.5 46z" />
<glyph unicode="Y" horiz-adv-x="1007" d="M0 1446q0 27 21.5 46t48.5 19q41 0 59 -41q129 -303 346 -716l29 -56q229 428 377 772q18 41 57 41q27 0 48.5 -18t21.5 -47q0 -12 -7 -27q-172 -397 -432 -874v-496q0 -68 -67 -67q-27 0 -47.5 20.5t-20.5 46.5v496q-274 514 -428 872q-6 15 -6 29z" />
<glyph unicode="Z" d="M31 66q0 29 20 61l752 1235h-705q-63 0 -63 65q0 27 18.5 46.5t44.5 19.5h824q63 0 63 -66q0 -23 -20 -55l-756 -1243h715q63 0 63 -63q0 -66 -63 -66h-828q-65 0 -65 66z" />
<glyph unicode="[" horiz-adv-x="505" d="M102 -133v1753q0 66 66 66h178q66 0 66 -66q0 -63 -66 -64h-108v-1624h108q27 0 46.5 -19t19.5 -46q0 -66 -66 -66h-178q-66 0 -66 66z" />
<glyph unicode="\" horiz-adv-x="722" d="M-8 1569q0 63 63 63q43 0 60 -41l620 -1634q4 -10 4 -23q0 -63 -61 -63q-43 0 -60 41l-622 1634q-4 11 -4 23z" />
<glyph unicode="]" horiz-adv-x="505" d="M94 -133q0 27 19.5 46t46.5 19h108v1624h-108q-66 0 -66 64q0 66 66 66h178q66 0 65 -66v-1753q0 -66 -65 -66h-178q-66 0 -66 66z" />
<glyph unicode="^" horiz-adv-x="1001" d="M94 909q0 16 10 33l330 524q27 43 68 43q39 0 65 -43l330 -524q10 -14 10 -33q0 -63 -63 -63q-35 0 -53 28l-289 463l-291 -463q-18 -29 -51 -28q-66 0 -66 63z" />
<glyph unicode="_" horiz-adv-x="948" d="M-61 -272q0 25 18 43t43 18h950q59 0 60 -61q0 -59 -60 -60h-950q-61 1 -61 60z" />
<glyph unicode="`" horiz-adv-x="1085" d="M395 1583q0 59 62 59q37 0 55 -32l172 -310q8 -12 8 -26q0 -53 -57 -53q-31 0 -49 28l-183 303q-8 15 -8 31z" />
<glyph unicode="a" horiz-adv-x="1001" d="M78 281v16q0 129 84 205q94 84 280 84h256v55q0 150 -45 209q-51 68 -192 68q-123 0 -221 -56q-16 -8 -33 -8q-59 0 -60 59q0 31 31 50q111 70 287 69q207 0 291 -104q74 -92 73 -295v-402q0 -106 60 -135q33 -14 33 -49q0 -59 -64 -59q-53 0 -98 43q-27 27 -41 71 q-90 -115 -289 -114q-180 0 -272 88q-80 76 -80 205zM209 279q0 -180 237 -181q252 0 252 244v135h-247q-242 0 -242 -180v-18z" />
<glyph unicode="b" horiz-adv-x="1038" d="M80 47q0 25 16 36l33 21q43 25 43 127v1186q0 66 65.5 66t65.5 -66v-489q117 104 272 104q350 0 351 -428v-207q0 -410 -373 -409q-158 0 -277 90q-16 -35 -55 -62.5t-76 -27.5q-65 0 -65 59zM303 197q102 -90 238 -91q254 0 254 285v225q0 297 -238 297 q-156 0 -254 -125v-591z" />
<glyph unicode="c" horiz-adv-x="849" d="M115 436v144q0 195 98 317q106 135 295 135q150 0 250 -59q31 -18 30 -49q0 -61 -57 -62q-14 0 -29 8q-84 43 -188 43q-129 0 -199.5 -89t-70.5 -238v-152q0 -330 268 -330q106 0 195 46q16 8 30 8q33 0 47 -33q8 -17 9 -31q0 -29 -33 -47q-111 -59 -254 -59 q-197 0 -297 127q-94 116 -94 321z" />
<glyph unicode="d" horiz-adv-x="1038" d="M115 389v197q0 446 362 446q145 0 260 -90v475q0 66 64 66q66 0 65 -66v-1186q0 -57 8 -79q10 -39 52 -56q33 -14 32 -49q0 -59 -63 -59q-41 0 -80 28.5t-55 67.5q-123 -96 -275 -96q-370 0 -370 401zM244 385q0 -141 59 -210t197 -69q125 0 237 99v600 q-102 109 -243 108q-250 0 -250 -315v-213z" />
<glyph unicode="e" horiz-adv-x="989" d="M115 414v190q0 188 88 301q102 127 301 127q387 0 387 -424v-84q0 -55 -53 -55h-594v-61q0 -303 262 -304q158 0 270 66q12 8 27 8q35 0 49 -35q8 -16 7 -30q0 -28 -30 -45q-131 -80 -325 -80q-201 0 -301 127q-88 111 -88 299zM244 580h520v41q0 297 -260 297t-260 -300 v-38z" />
<glyph unicode="f" horiz-adv-x="589" d="M37 960.5q0 59.5 59 59.5h72v57q0 205 70 299q82 113 288 113h62q61 0 61 -61.5t-61 -61.5h-53q-143 0 -193 -68q-45 -59 -45 -221v-57h190q59 0 59.5 -59.5t-59.5 -59.5h-190v-848q0 -66 -64 -65q-66 0 -65 65v848h-72q-59 0 -59 59.5z" />
<glyph unicode="g" horiz-adv-x="1017" d="M115 444v164q0 424 358 424q143 0 264 -100v35q0 27 19.5 46t46.5 19q66 0 65 -65v-899q0 -442 -391 -443q-160 0 -276 51q-39 16 -39 54q0 59 57 59q29 0 114 -23.5t138 -23.5q266 0 266 321v60q-123 -90 -270 -90q-352 -1 -352 411zM244 436q0 -283 239 -282 q150 0 254 98v543q-100 117 -250 116q-244 0 -243 -293v-182z" />
<glyph unicode="h" horiz-adv-x="1062" d="M150 53v1364q0 66 65 66q27 0 46.5 -19.5t19.5 -46.5v-499q109 115 305 114q330 0 329 -368v-611q0 -66 -63 -65q-66 0 -66 65v602q0 125 -43 183q-51 70 -176 69q-201 0 -286 -153v-701q0 -27 -19.5 -46t-46.5 -19q-65 -1 -65 65z" />
<glyph unicode="i" horiz-adv-x="428" d="M135 1374q0 33 23.5 56.5t56.5 23.5t56.5 -23.5t23.5 -56.5t-23.5 -56.5t-56.5 -23.5t-56.5 23.5t-23.5 56.5zM150 53v914q0 27 19 46t46 19t46.5 -19.5t19.5 -45.5v-914q0 -27 -19.5 -46t-46.5 -19q-65 -1 -65 65z" />
<glyph unicode="j" horiz-adv-x="428" d="M-88 -315q0 57 59 59q92 2 135.5 52t43.5 181v990q0 27 19 46t46 19t46.5 -19.5t19.5 -45.5v-985q0 -356 -310 -357q-59 1 -59 60zM135 1374q0 33 23.5 56.5t56.5 23.5t56.5 -23.5t23.5 -56.5t-23.5 -56.5t-56.5 -23.5t-56.5 23.5t-23.5 56.5z" />
<glyph unicode="k" horiz-adv-x="915" d="M150 53v1364q0 66 65 66q27 0 46.5 -19.5t19.5 -46.5v-887l473 484q18 18 41 18q59 0 59 -59q0 -25 -16 -43l-308 -312q219 -291 347 -540q8 -14 8 -29q0 -27 -21.5 -44t-48.5 -17q-37 0 -55 37q-127 246 -322 503l-157 -161v-314q0 -27 -19.5 -46t-46.5 -19 q-65 -1 -65 65z" />
<glyph unicode="l" horiz-adv-x="452" d="M143 197v1220q0 66 66 66q63 0 63 -66v-1186q0 -106 68 -135q33 -14 33 -49q0 -59 -64 -59q-53 0 -100 43q-66 60 -66 166z" />
<glyph unicode="m" horiz-adv-x="1679" d="M80 958q0 61 65 62q49 0 99 -43q31 -27 43 -66q111 121 311 121q209 0 279 -147q111 147 331 147q324 0 324 -368v-611q0 -66 -65.5 -65.5t-65.5 65.5v602q0 125 -43 185q-49 68 -168 67q-197 0 -275 -155q6 -43 7 -88v-611q0 -27 -19.5 -46t-46.5 -19q-66 0 -65 65v602 q0 125 -43 185q-49 68 -168 67q-188 0 -269 -139v-715q0 -27 -19.5 -46t-45.5 -19q-66 0 -66 65v723q0 102 -67 133q-33 14 -33 49z" />
<glyph unicode="n" horiz-adv-x="1093" d="M80 958q0 61 65 62q51 0 99 -43q33 -31 47 -76q111 131 325 131q330 0 330 -368v-611q0 -66 -65 -65q-27 0 -46.5 19.5t-19.5 45.5v602q0 125 -43 183q-49 70 -174 69q-201 0 -287 -153v-701q0 -27 -19.5 -46t-45.5 -19q-66 0 -66 65v723q0 102 -67 133q-33 14 -33 49z " />
<glyph unicode="o" d="M115 406v208q0 186 92 295q102 123 305 123t305 -123q92 -109 92 -295v-208q0 -186 -92 -295q-102 -123 -305 -123t-305 123q-92 109 -92 295zM244 406q0 -295 268 -295q266 0 266 295v208q0 293 -266 293q-268 0 -268 -293v-208z" />
<glyph unicode="p" horiz-adv-x="1038" d="M80 971q0 61 65 61q86 0 136 -96q127 96 274 96q371 0 371 -403v-195q0 -446 -365 -446q-141 0 -258 88v-385q0 -66 -65.5 -66t-65.5 66v1097q0 66 -12.5 91.5t-46 41t-33.5 50.5zM303 215q98 -109 244 -109q248 0 248 314v215q0 143 -56 209q-61 70 -198 69 q-121 0 -238 -98v-600z" />
<glyph unicode="q" horiz-adv-x="1038" d="M115 416v207q0 410 372 409q152 0 275 -90q16 37 55 63.5t78 26.5q63 0 63 -61q0 -35 -33.5 -50.5t-46 -41t-12.5 -91.5v-1097q0 -66 -65 -66q-63 0 -64 66v401q-117 -104 -272 -104q-350 0 -350 428zM244 403q0 -297 239 -297q152 0 254 125v592q-106 90 -237 90 q-256 0 -256 -284v-226z" />
<glyph unicode="r" horiz-adv-x="761" d="M80 958q0 61 65 62h9q6 -2 10 -2q102 -27 133 -131q96 145 283 145q86 0 139 -20q37 -14 37 -56q0 -27 -18.5 -47t-45.5 -20q-20 0 -62 8t-67 8q-213 0 -252 -219v-633q0 -27 -19.5 -46t-45.5 -19q-66 0 -66 65v723q0 102 -67 133q-33 14 -33 49z" />
<glyph unicode="s" horiz-adv-x="864" d="M86 111q14 39 53 39q12 0 23 -5q106 -41 246 -41q244 0 243 185q0 113 -147 153l-271 68q-147 63 -147 229q0 135 94 214t239.5 79t254.5 -45q39 -16 39 -55q0 -59 -58 -60q-12 0 -22 5q-98 39 -209 38q-102 0 -157.5 -47t-55.5 -125q0 -109 147 -147l273 -68 q147 -66 147 -235q0 -147 -100 -226t-272 -79q-166 0 -287 45q-39 15 -40 47q0 14 7 31z" />
<glyph unicode="t" horiz-adv-x="645" d="M41 960.5q0 59.5 59 59.5h72v246q0 66 65.5 65.5t65.5 -65.5v-246h205q59 0 59 -59.5t-59 -59.5h-205v-473q0 -174 39 -235q45 -70 174 -70h45q25 0 43.5 -18.5t18.5 -43.5q0 -61 -62 -61h-53q-195 0 -272 117q-63 96 -64 311v473h-72q-59 0 -59 59.5z" />
<glyph unicode="u" horiz-adv-x="1095" d="M147 354v613q0 27 19.5 46t46.5 19t46.5 -19.5t19.5 -45.5v-602q0 -127 43 -183q51 -68 176 -67q211 0 286 161v691q0 27 19.5 46t46.5 19t46 -19.5t19 -45.5v-736q0 -106 66 -135q33 -14 33 -49q0 -59 -64 -59q-53 0 -100 43q-33 31 -47 84q-115 -127 -324 -127 q-332 -1 -332 366z" />
<glyph unicode="v" horiz-adv-x="913" d="M41 971q0 61 68 61q41 0 55 -45q121 -377 289 -817q158 410 292 817q14 45 60 45q27 0 47 -17.5t20 -43.5q0 -12 -4 -23q-141 -428 -331 -895q-27 -66 -84 -65q-59 0 -86 65q-186 477 -322 897q-4 11 -4 21z" />
<glyph unicode="w" horiz-adv-x="1427" d="M49 973q0 59 64 59q47 0 59 -47q119 -436 234 -801q135 428 233 789q16 59 76 59q57 0 73 -59q98 -360 234 -789q111 348 235 801q12 47 60 47q63 0 63 -59q0 -8 -2 -17q-115 -422 -272 -911q-18 -57 -79.5 -57t-80.5 57l-231 764q-104 -367 -234 -764q-18 -57 -79.5 -57 t-79.5 57q-162 498 -271 911q-2 9 -2 17z" />
<glyph unicode="x" horiz-adv-x="899" d="M55 47q0 16 8 31q84 158 306 446q-197 256 -277 414q-8 14 -8 31q0 27 21.5 45t48.5 18q37 0 57 -39q78 -147 240 -362q168 223 241 364q18 37 56 37q25 0 46 -17.5t21 -43.5q0 -14 -8 -29q-84 -166 -279 -414q219 -281 308 -446q8 -16 8 -31q0 -27 -21.5 -45t-48.5 -18 q-39 0 -57 37q-80 152 -268 399q-197 -256 -273 -401q-18 -35 -53 -35q-27 0 -47.5 17t-20.5 42z" />
<glyph unicode="y" horiz-adv-x="907" d="M16 -309q0 59 62 61q197 4 313 240q-236 592 -354 958q-4 10 -4 21q0 61 67 61q43 0 58 -45q119 -369 301 -829l284 829q16 45 60 45q68 0 67 -63q0 -12 -4 -25l-282 -805q-94 -270 -207 -387q-115 -123 -293 -127h-4q-64 0 -64 66z" />
<glyph unicode="z" horiz-adv-x="847" d="M43 66q0 20 12 36l572 795h-486q-59 0 -59 61.5t59 61.5h604q61 0 62 -62q0 -25 -16 -47l-570 -790h524q61 0 62 -60q0 -61 -62 -61h-641q-61 0 -61 66z" />
<glyph unicode="{" horiz-adv-x="577" d="M61 745.5q0 57.5 58 57.5h12q41 0 74 35q43 43 43 131q0 66 -42 205t-42 210q0 131 70.5 217.5t185.5 86.5h12q66 0 66 -62q0 -65 -64 -65h-10q-53 0 -89 -47.5t-36 -133.5q0 -68 40 -203t40 -206q0 -158 -119 -223v-7q119 -63 119 -221q0 -72 -40 -207t-40 -204 q0 -84 36 -131.5t89 -47.5h10q64 0 64 -67q0 -60 -66 -60h-12q-115 0 -185.5 85t-70.5 216q0 74 42 213.5t42 204.5q0 88 -43 133q-33 33 -74 33h-12q-58 0 -58 57.5z" />
<glyph unicode="|" horiz-adv-x="438" d="M152 -129v1751q0 29 20.5 48.5t46.5 19.5q29 0 48.5 -19.5t19.5 -48.5v-1751q0 -68 -67.5 -68t-67.5 68z" />
<glyph unicode="}" horiz-adv-x="577" d="M82 -133.5q0 63.5 61 63.5h11q53 0 90 47.5t37 131.5q0 70 -40 205t-40 206q0 158 116 221v7q-117 66 -116 223q0 72 40 207t40 202q0 86 -37 133.5t-90 47.5h-11q-61 0 -61 61q0 66 63 66h15q115 0 184.5 -85t69.5 -219q0 -72 -41 -211t-41 -204q0 -88 43 -131 q31 -35 74 -35h12q57 0 57 -57.5t-57 -57.5h-12q-43 0 -74 -33q-43 -45 -43 -133q0 -66 41 -205t41 -213q0 -131 -70 -216t-184 -85h-15q-63 0 -63 63.5z" />
<glyph unicode="~" horiz-adv-x="1028" d="M129 551q0 53 67.5 91t155.5 38q74 0 169 -45t147 -45q57 0 100 29.5t63 29.5q68 0 68 -67q0 -53 -66.5 -90t-154.5 -37q-76 0 -170 44t-146 44q-59 0 -101 -30t-62 -30q-29 0 -49.5 19.5t-20.5 48.5z" />
<glyph horiz-adv-x="1206" d="M94 583.5q0 55.5 55 55.5h70v211h-70q-55 0 -55 53q0 55 55 55h72q39 553 520 553q231 0 353 -139q23 -27 22 -49q0 -61 -63 -63q-18 0 -36 16l-36 33q-90 78 -240 77q-354 0 -383 -428h433q55 0 55 -55q0 -53 -55 -53h-437v-211h437q55 0 55 -55.5t-55 -55.5h-433 q14 -215 102.5 -318.5t266.5 -103.5q150 0 256 84l39 32q18 15 39 16h4q56 0 55 -62q0 -25 -22 -49q-133 -145 -371 -145q-469 0 -506 546h-72q-55 0 -55 55.5z" />
<glyph unicode="&#x20ac;" horiz-adv-x="1206" d="M94 583.5q0 55.5 55 55.5h70v211h-70q-55 0 -55 53q0 55 55 55h72q39 553 520 553q231 0 353 -139q23 -27 22 -49q0 -61 -63 -63q-18 0 -36 16l-36 33q-90 78 -240 77q-354 0 -383 -428h433q55 0 55 -55q0 -53 -55 -53h-437v-211h437q55 0 55 -55.5t-55 -55.5h-433 q14 -215 102.5 -318.5t266.5 -103.5q150 0 256 84l39 32q18 15 39 16h4q56 0 55 -62q0 -25 -22 -49q-133 -145 -371 -145q-469 0 -506 546h-72q-55 0 -55 55.5z" />
<glyph unicode="&#xa1;" horiz-adv-x="516" d="M160 934q0 41 29.5 69.5t68.5 28.5q41 0 69.5 -28.5t28.5 -69.5t-28.5 -69.5t-69.5 -28.5t-69.5 28.5t-28.5 69.5zM182 -420l17 975q2 68 59 68t59 -68l17 -975q2 -80 -76 -80t-76 80z" />
<glyph unicode="&#xa2;" horiz-adv-x="849" d="M115 436v142q0 178 82 299q90 129 252 149v119q0 57 59 57t59 -57v-119q109 -6 191 -55q31 -18 30 -49q0 -61 -57 -62q-14 0 -29 8q-88 45 -188 45q-127 0 -198.5 -90t-71.5 -239v-150q0 -330 268 -330q106 0 195 46q16 8 30 8q33 0 47 -33q8 -17 9 -31q0 -29 -33 -47 q-92 -49 -193 -55v-119q0 -59 -59 -59t-59 59v117q-168 18 -254 143q-80 115 -80 303z" />
<glyph unicode="&#xa3;" horiz-adv-x="1171" d="M119 66q0 35 33 53q35 12 67 26q141 104 141 281q0 84 -49 205h-102q-59 0 -59 59.5t59 59.5h61q-72 180 -71 309q0 176 112 301q129 145 359 145q168 0 307 -49q49 -16 49 -61q0 -68 -63 -68q10 0 -99 27q-84 20 -186 20q-174 0 -268 -104q-78 -88 -78 -213 q0 -104 80 -307h354q59 0 59 -59.5t-59 -59.5h-315q45 -121 45 -205q0 -172 -125 -297h628q66 0 66 -63q0 -66 -66 -66h-817q-63 0 -63 66z" />
<glyph unicode="&#xa4;" horiz-adv-x="1206" d="M94 583.5q0 55.5 55 55.5h70v211h-70q-55 0 -55 53q0 55 55 55h72q39 553 520 553q231 0 353 -139q23 -27 22 -49q0 -61 -63 -63q-18 0 -36 16l-36 33q-90 78 -240 77q-354 0 -383 -428h433q55 0 55 -55q0 -53 -55 -53h-437v-211h437q55 0 55 -55.5t-55 -55.5h-433 q14 -215 102.5 -318.5t266.5 -103.5q150 0 256 84l39 32q18 15 39 16h4q56 0 55 -62q0 -25 -22 -49q-133 -145 -371 -145q-469 0 -506 546h-72q-55 0 -55 55.5z" />
<glyph unicode="&#xa5;" horiz-adv-x="1007" d="M0 1446q0 27 21.5 45t48.5 18q43 0 59 -39q129 -303 346 -716l29 -56q229 428 377 772q16 39 57 39q70 0 70 -63q0 -14 -7 -29q-121 -279 -290 -606h180q57 0 57 -59.5t-57 -59.5h-242l-80 -147v-53h322q57 0 57 -59.5t-57 -59.5h-322v-324q0 -68 -67 -67 q-27 0 -47.5 20.5t-20.5 46.5v324h-319q-59 0 -59.5 59.5t59.5 59.5h319v53l-78 147h-241q-59 0 -59.5 59.5t59.5 59.5h180q-156 303 -289 606q-6 15 -6 29z" />
<glyph unicode="&#xa6;" horiz-adv-x="438" d="M152 -129v680q0 29 20.5 48t46.5 19q29 0 48.5 -19t19.5 -48v-680q0 -29 -19.5 -48.5t-48.5 -19.5q-27 0 -47 19.5t-20 48.5zM152 942v680q0 66 67.5 66t67.5 -66v-680q0 -68 -67.5 -68t-67.5 68z" />
<glyph unicode="&#xa7;" horiz-adv-x="1114" d="M109 604q0 186 141 293q-80 76 -80 207q0 190 135 291q115 86 291 86q135 0 246 -41q72 -27 71 -68q0 -66 -59 -65q4 0 -88 28.5t-166 28.5q-133 0 -213 -59q-90 -68 -90 -193q0 -129 158 -192q33 -12 200 -66q145 -43 201 -74q156 -86 156 -266q0 -184 -142 -291 q80 -84 80 -207q0 -190 -135 -290q-115 -88 -291 -88q-129 0 -245 40q-72 25 -72 70q0 63 59 64q12 0 33 -9q33 -14 53 -20q86 -27 168 -27q133 0 213 60q88 68 88 192q0 129 -157 193q-33 12 -201 63q-143 43 -199 74q-155 86 -155 266zM236 610q0 -109 100 -164 q35 -20 207 -73q78 -23 225 -82q117 74 117 217q0 109 -101 166q-31 18 -206 74q-78 23 -226 81q-116 -72 -116 -219z" />
<glyph unicode="&#xa8;" horiz-adv-x="1085" d="M240 1409q0 41 29.5 70.5t70.5 29.5t69.5 -29.5t28.5 -70.5t-28.5 -70.5t-69.5 -29.5t-70.5 29.5t-29.5 70.5zM647 1409q0 41 29 70.5t69.5 29.5t70.5 -29.5t30 -70.5t-30 -70.5t-70.5 -29.5t-69.5 29.5t-29 70.5z" />
<glyph unicode="&#xa9;" horiz-adv-x="1808" d="M139 745q0 317 225.5 541.5t541 224.5t539.5 -224t224 -542q0 -315 -223 -539t-540.5 -224t-542 224t-224.5 539zM250 745q0 -270 191.5 -462.5t463.5 -192.5q270 0 462 192.5t192 462.5q0 272 -191.5 465t-462.5 193q-272 0 -463.5 -193t-191.5 -465zM575 690v113 q0 158 82 260q90 113 246 113q119 0 203 -39q33 -14 33 -50q0 -55 -54 -55q-8 0 -22 6q-68 31 -158 31q-100 0 -160.5 -72.5t-60.5 -193.5v-113q0 -266 221 -266q92 0 160 33q8 4 22 4q53 0 54 -55q0 -33 -33 -48q-88 -41 -205 -41q-162 0 -250 109q-78 98 -78 264z" />
<glyph unicode="&#xaa;" horiz-adv-x="854" d="M78 852v14q0 106 69 170q78 70 232 70h205v41q0 119 -37 166q-41 55 -154 55q-102 0 -178 -45q-12 -8 -27 -8q-29 0 -45 24q-12 17 -12 32q0 23 29 40q92 57 237 57q170 0 240 -86q61 -76 61 -241v-328q0 -88 45 -106q29 -12 29 -43q0 -53 -55 -54q-43 0 -82 35 q-20 18 -33 53q-76 -88 -233 -88q-150 0 -226 72q-65 64 -65 170zM190 852q0 -145 191 -145q203 0 203 194v109h-199q-195 0 -195 -144v-14z" />
<glyph unicode="&#xab;" horiz-adv-x="1193" d="M70 550.5q0 24.5 18 43.5l395 410q18 18 45 18q63 0 64 -61q0 -25 -19 -43l-354 -367l354 -367q16 -18 17 -43q0 -63 -62 -63q-27 0 -45 20l-395 410q-18 18 -18 42.5zM573 550.5q0 24.5 19 43.5l395 410q18 18 45 18q63 0 64 -61q0 -25 -19 -43l-354 -367l354 -367 q16 -18 17 -43q0 -63 -62 -63q-27 0 -45 20l-395 410q-19 18 -19 42.5z" />
<glyph unicode="&#xac;" />
<glyph unicode="&#xad;" horiz-adv-x="1073" d="M117 559q0 61 63 62h715q61 0 61 -62q0 -27 -18 -45t-43 -18h-715q-63 0 -63 63z" />
<glyph unicode="&#x2212;" horiz-adv-x="1073" d="M117 559q0 61 63 62h715q61 0 61 -62q0 -27 -18 -45t-43 -18h-715q-63 0 -63 63z" />
<glyph unicode="&#xae;" horiz-adv-x="1808" d="M139 745q0 317 225.5 541.5t541 224.5t539.5 -224t224 -542q0 -315 -223 -539t-540.5 -224t-542 224t-224.5 539zM250 745q0 -270 191.5 -462.5t463.5 -192.5q270 0 462 192.5t192 462.5q0 272 -191.5 465t-462.5 193q-272 0 -463.5 -193t-191.5 -465zM635 379v733 q0 55 55 55h228q137 0 208 -67q59 -59 60 -150v-51q0 -70 -45 -127t-129 -78l157 -291q6 -8 7 -24q0 -55 -56 -55q-33 0 -49 30l-174 326h-152v-301q0 -53 -55 -53t-55 53zM745 778h166q86 0 131 43q33 33 33 80v47q0 123 -160 123h-170v-293z" />
<glyph unicode="&#xaf;" horiz-adv-x="1085" d="M272 1390.5q0 59.5 60 59.5h422q59 0 59 -59.5t-59 -59.5h-422q-60 0 -60 59.5z" />
<glyph unicode="&#x2c9;" horiz-adv-x="1085" d="M272 1390.5q0 59.5 60 59.5h422q59 0 59 -59.5t-59 -59.5h-422q-60 0 -60 59.5z" />
<glyph unicode="&#xb0;" horiz-adv-x="808" d="M74 1184q0 137 96 232t233.5 95t233.5 -95t96 -232t-96 -232.5t-233.5 -95.5t-233.5 95.5t-96 232.5zM195 1184q0 -88 61 -149.5t147 -61.5q88 0 149.5 61.5t61.5 149.5q0 86 -61 147.5t-150 61.5q-86 0 -147 -61.5t-61 -147.5z" />
<glyph unicode="&#xb1;" />
<glyph unicode="&#xb2;" horiz-adv-x="921" d="M199 643q0 109 77 203q37 43 134 119q129 100 149 122q72 72 72 154q0 170 -166 170q-68 0 -123 -27q-18 -8 -47 -30q-18 -16 -33 -17q-47 0 -47 45q0 20 16 35q90 82 234 82q127 0 197 -80q61 -70 61 -178q0 -98 -64 -180q-41 -51 -141 -125q-109 -80 -141 -115 q-66 -63 -80 -133h381q45 0 45 -45t-45 -45h-434q-45 0 -45 45z" />
<glyph unicode="&#xb3;" horiz-adv-x="921" d="M193 713q0 43 43 43q14 0 28 -15q29 -25 47 -34q55 -35 138 -35q90 0 139 50t49 126q0 160 -207 164q-45 0 -45 43q0 41 45 43q188 12 188 153q0 162 -163 162q-70 0 -125 -33q-14 -8 -41 -32q-18 -14 -33 -15q-41 0 -41 43q0 18 16 33q80 90 226 90q129 0 196 -80 q53 -68 54 -162q0 -141 -127 -196q150 -51 149 -217q0 -109 -70 -178q-78 -78 -208 -78q-152 0 -244 92q-14 15 -14 33z" />
<glyph unicode="&#xb4;" horiz-adv-x="1085" d="M393 1274q0 14 8 26l172 310q18 33 56 32q61 0 61 -59q0 -16 -8 -31l-182 -303q-18 -29 -49 -28q-58 0 -58 53z" />
<glyph unicode="&#xb5;" horiz-adv-x="1095" d="M147 -354v1321q0 27 19.5 46t46.5 19t46.5 -19.5t19.5 -45.5v-602q0 -127 43 -183q51 -68 176 -67q211 0 286 161v691q0 27 19.5 46t46.5 19t46 -19.5t19 -45.5v-736q0 -106 66 -135q33 -14 33 -49q0 -59 -64 -59q-53 0 -100 43q-33 31 -47 84q-115 -127 -324 -127 q-123 0 -200 49v-391q0 -66 -66 -66q-27 0 -46.5 19.5t-19.5 46.5z" />
<glyph unicode="&#x3bc;" horiz-adv-x="1095" d="M147 -354v1321q0 27 19.5 46t46.5 19t46.5 -19.5t19.5 -45.5v-602q0 -127 43 -183q51 -68 176 -67q211 0 286 161v691q0 27 19.5 46t46.5 19t46 -19.5t19 -45.5v-736q0 -106 66 -135q33 -14 33 -49q0 -59 -64 -59q-53 0 -100 43q-33 31 -47 84q-115 -127 -324 -127 q-123 0 -200 49v-391q0 -66 -66 -66q-27 0 -46.5 19.5t-19.5 46.5z" />
<glyph unicode="&#xb6;" horiz-adv-x="1255" d="M113 1112q0 162 115.5 274.5t279.5 112.5h620q59 0 59.5 -59.5t-59.5 -59.5h-106v-1642q0 -68 -66 -68q-68 0 -67 68v1642h-258v-1642q0 -29 -19.5 -48.5t-48.5 -19.5q-27 0 -47 19.5t-20 48.5v985q-160 4 -271.5 116.5t-111.5 272.5z" />
<glyph unicode="&#xb7;" horiz-adv-x="458" d="M123 604q0 41 29.5 69.5t68.5 28.5q41 0 69.5 -28.5t28.5 -69.5t-28.5 -69.5t-69.5 -28.5t-69.5 28.5t-28.5 69.5z" />
<glyph unicode="&#x2219;" horiz-adv-x="458" d="M123 604q0 41 29.5 69.5t68.5 28.5q41 0 69.5 -28.5t28.5 -69.5t-28.5 -69.5t-69.5 -28.5t-69.5 28.5t-28.5 69.5z" />
<glyph unicode="&#xb8;" horiz-adv-x="1085" d="M358 -365q0 35 101 35q154 0 153 92q0 82 -135 91q-72 4 -67 55l6 100h82v-84q229 0 229 -166q0 -78 -63.5 -124t-174.5 -46q-131 0 -131 47z" />
<glyph unicode="&#xb9;" horiz-adv-x="921" d="M188 1227q-10 15 -10 28q0 19 21 33l290 201q14 10 31 10q45 0 45 -47v-764h127q45 0 45 -45t-45 -45h-430q-45 0 -45 45t45 45h211v680l-223 -154q-15 -10 -28 -9q-19 0 -34 22z" />
<glyph unicode="&#xba;" horiz-adv-x="884" d="M115 954v170q0 154 75 244q84 100 252 100q166 0 252 -100q76 -92 76 -244v-170q0 -152 -76 -241q-86 -102 -252 -103q-168 0 -252 103q-75 87 -75 241zM227 954q0 -236 215 -235q213 0 213 235v170q0 236 -213 236q-215 0 -215 -236v-170z" />
<glyph unicode="&#xbb;" horiz-adv-x="1193" d="M98 961q0 61 64 61q27 0 45 -18l395 -410q18 -18 18.5 -43t-18.5 -43l-395 -410q-18 -20 -45 -20q-61 0 -62 63q0 25 17 43l354 367l-354 367q-19 18 -19 43zM602 141.5q0 24.5 19 42.5l354 367l-354 367q-18 18 -19 43q0 61 64 61q27 0 45 -18l395 -410q18 -18 18 -43 t-18 -43l-395 -410q-18 -18 -45 -18q-25 0 -44.5 18.5t-19.5 43z" />
<glyph unicode="&#xbc;" horiz-adv-x="921" d="M88 524q0 41 41 41h664q41 0 41 -41t-41 -41h-664q-41 0 -41 41zM180 -225q0 4 6 22l254 576q13 28 35 28q10 0 21 -6q27 -13 27 -36q0 -10 -5 -21l-229 -522h211v176q0 43 43 43q41 0 41 -43v-176h65q39 0 39 -41t-39 -41h-65v-133q0 -43 -41 -43q-43 0 -43 43v133h-279 q-41 0 -41 41zM203 1247q-9 14 -9 27q0 18 19 31l270 184q10 10 27 10q43 0 43 -43v-706h117q41 0 41 -41t-41 -41h-400q-41 0 -41 41t41 41h197v628l-207 -143q-13 -9 -24 -9q-18 0 -33 21z" />
<glyph unicode="&#xbd;" horiz-adv-x="921" d="M88 524q0 41 41 41h664q41 0 41 -41t-41 -41h-664q-41 0 -41 41zM203 1247q-9 14 -9 27q0 18 19 31l270 184q10 10 27 10q43 0 43 -43v-706h117q41 0 41 -41t-41 -41h-400q-41 0 -41 41t41 41h197v628l-207 -143q-13 -9 -24 -9q-18 0 -33 21zM219 -389q0 100 72 186 q35 43 123 111q121 94 139 112q65 68 65 142q0 158 -153 157q-63 0 -113 -24q-16 -8 -43 -31q-16 -14 -30 -14q-43 0 -43 43q0 20 14 33q84 76 217 75q117 0 180 -73q57 -66 58 -166q0 -90 -60 -166q-39 -49 -131 -117q-98 -72 -131 -104q-57 -59 -72 -123h353q41 0 41 -41 q0 -43 -41 -43h-404q-41 0 -41 43z" />
<glyph unicode="&#xbe;" horiz-adv-x="921" d="M88 524q0 41 41 41h664q41 0 41 -41t-41 -41h-664q-41 0 -41 41zM184 -225q0 4 6 22l254 576q13 28 36 28q10 0 22 -6q26 -13 25 -35q0 -10 -5 -22l-229 -522h211v176q0 43 43 43t43 -43v-176h63q41 0 41 -41t-41 -41h-63v-133q0 -43 -43 -43t-43 43v133h-279 q-41 0 -41 41zM227 772q0 41 41 41q12 0 27 -12q25 -23 43 -35q47 -31 125 -31q84 0 129 46t45 116q0 147 -188 152q-43 0 -43 38.5t40 40.5q174 12 175 142q0 150 -150 149q-63 0 -117 -30q-14 -8 -39 -29q-14 -14 -28 -14q-39 0 -39 38q0 18 14 33q78 82 209 82 q119 0 180 -74q51 -61 51 -149q0 -131 -116 -182q137 -47 137 -201q0 -98 -64 -164q-72 -72 -194 -72q-139 0 -223 84q-15 15 -15 31z" />
<glyph unicode="&#xbf;" horiz-adv-x="931" d="M119 -109q0 131 63 222q43 63 168 166q102 84 137 153q25 49 25 125q0 61 66 61q63 0 63 -63q0 -117 -47 -199q-41 -72 -141 -153q-117 -96 -150 -142q-49 -66 -49 -161q0 -135 88 -211q78 -63 186 -64q170 0 277 107q16 16 39 16q27 0 46 -19.5t19 -43.5q0 -37 -71 -91 q-123 -92 -318 -92q-154 0 -268 90q-133 109 -133 299zM475 934q0 41 30 69.5t68 28.5q41 0 70 -28.5t29 -69.5t-29 -69.5t-70 -28.5t-69.5 28.5t-28.5 69.5z" />
<glyph unicode="&#xc0;" horiz-adv-x="1148" d="M31 47q0 8 2 19q174 676 456 1368q33 78 86.5 77.5t86.5 -77.5q276 -680 454 -1368q2 -10 2 -21q0 -63 -67 -63q-51 0 -66 51q-53 207 -92 334h-639q-66 -215 -94 -334q-12 -51 -62 -51q-67 -1 -67 65zM291 494h565q-123 391 -283 794q-161 -399 -282 -794zM451 1993 q0 59 61 59q37 0 55 -33l172 -309q8 -12 9 -27q0 -53 -58 -53q-31 0 -49 29l-182 303q-8 15 -8 31z" />
<glyph unicode="&#xc1;" horiz-adv-x="1148" d="M31 47q0 8 2 19q174 676 456 1368q33 78 86.5 77.5t86.5 -77.5q276 -680 454 -1368q2 -10 2 -21q0 -63 -67 -63q-51 0 -66 51q-53 207 -92 334h-639q-66 -215 -94 -334q-12 -51 -62 -51q-67 -1 -67 65zM291 494h565q-123 391 -283 794q-161 -399 -282 -794zM418 1683 q0 14 8 27l172 309q18 33 55 33q61 0 62 -59q0 -16 -8 -31l-183 -303q-18 -29 -49 -29q-57 0 -57 53z" />
<glyph unicode="&#xc2;" horiz-adv-x="1148" d="M31 47q0 8 2 19q174 676 456 1368q33 78 86.5 77.5t86.5 -77.5q276 -680 454 -1368q2 -10 2 -21q0 -63 -67 -63q-51 0 -66 51q-53 207 -92 334h-639q-66 -215 -94 -334q-12 -51 -62 -51q-67 -1 -67 65zM242 1718q0 25 18 43l264 267q17 17 40 16h5q29 0 45 -16l265 -269 q18 -18 18 -43q0 -55 -55 -55q-23 0 -39 16l-234 224l-233 -224q-16 -16 -37 -16q-57 0 -57 57zM291 494h565q-123 391 -283 794q-161 -399 -282 -794z" />
<glyph unicode="&#xc3;" horiz-adv-x="1148" d="M31 47q0 8 2 19q174 676 456 1368q33 78 86.5 77.5t86.5 -77.5q276 -680 454 -1368q2 -10 2 -21q0 -63 -67 -63q-51 0 -66 51q-53 207 -92 334h-639q-66 -215 -94 -334q-12 -51 -62 -51q-67 -1 -67 65zM258 1802q0 49 55.5 85t128.5 38h6q61 0 139 -40q81 -42 124 -42 q51 2 85.5 31t53.5 29q53 0 55 -62q0 -49 -55 -85t-129 -38h-6q-61 0 -138 39q-81 41 -124 41q-51 -2 -86 -30.5t-54 -28.5h-3q-50 -1 -52 63zM291 494h565q-123 391 -283 794q-161 -399 -282 -794z" />
<glyph unicode="&#xc4;" horiz-adv-x="1148" d="M31 47q0 8 2 19q174 676 456 1368q33 78 86.5 77.5t86.5 -77.5q276 -680 454 -1368q2 -10 2 -21q0 -63 -67 -63q-51 0 -66 51q-53 207 -92 334h-639q-66 -215 -94 -334q-12 -51 -62 -51q-67 -1 -67 65zM266 1819q0 41 30 70.5t71 29.5t69.5 -29.5t28.5 -70.5t-28.5 -71 t-69.5 -30t-71 30t-30 71zM291 494h565q-123 391 -283 794q-161 -399 -282 -794zM674 1819q0 41 28.5 70.5t69.5 29.5t70.5 -29.5t29.5 -70.5t-29.5 -71t-70.5 -30t-69.5 30t-28.5 71z" />
<glyph unicode="&#xc5;" horiz-adv-x="1148" d="M31 47q0 8 2 19q174 676 456 1368q33 78 86.5 77.5t86.5 -77.5q276 -680 454 -1368q2 -10 2 -21q0 -63 -67 -63q-51 0 -66 51q-53 207 -92 334h-639q-66 -215 -94 -334q-12 -51 -62 -51q-67 -1 -67 65zM291 494h565q-123 391 -283 794q-161 -399 -282 -794zM336 1821 q0 98 69.5 167.5t168 69.5t168 -69.5t69.5 -167.5q0 -100 -69.5 -170t-168 -70t-168 70t-69.5 170zM424 1820.5q0 -61.5 45 -106.5t104 -45q61 0 105.5 45t44.5 106.5t-44 104.5t-105.5 43t-105.5 -43t-44 -104.5z" />
<glyph unicode="&#xc6;" horiz-adv-x="1792" d="M31 61q0 16 8 33q291 573 743 1331q41 68 113 68h719q27 0 46 -19.5t19 -46.5q0 -66 -65 -65h-590v-553h535q63 0 63 -63.5t-63 -63.5h-535v-553h621q66 0 65 -63q0 -66 -65 -66h-691q-27 0 -46 19.5t-19 46.5v301h-555l-174 -332q-20 -39 -60 -39q-69 -1 -69 65z M399 494h490v847q-240 -392 -490 -847z" />
<glyph unicode="&#xc7;" horiz-adv-x="1126" d="M139 623v247q0 293 121 459q133 182 402 182q233 0 354 -139q23 -27 22 -49q0 -61 -63 -63q-16 0 -74 49q-90 78 -239 77q-387 0 -388 -518v-245q0 -264 89.5 -390.5t285.5 -126.5q152 0 256 84l39 32q18 15 37 16h4q58 0 57 -62q0 -25 -22 -49q-129 -137 -346 -145v-66 q229 0 229 -166q0 -78 -63.5 -124t-173.5 -46q-133 0 -134 47q0 35 103 35q152 0 151 94q0 55 -55 74q-4 2 -100 16q-49 8 -45 54l6 84q-453 37 -453 639z" />
<glyph unicode="&#xc8;" horiz-adv-x="1122" d="M174 66v1361q0 27 19.5 46.5t46.5 19.5h706q27 0 45.5 -19.5t18.5 -46.5q0 -66 -64 -65h-637v-553h580q63 0 63 -63.5t-63 -63.5h-580v-553h668q63 0 63 -63q0 -66 -63 -66h-737q-27 0 -46.5 19.5t-19.5 46.5zM457 1993q0 59 61 59q37 0 55 -33l172 -309q8 -12 9 -27 q0 -53 -58 -53q-31 0 -49 29l-182 303q-8 15 -8 31z" />
<glyph unicode="&#xc9;" horiz-adv-x="1122" d="M174 66v1361q0 27 19.5 46.5t46.5 19.5h706q27 0 45.5 -19.5t18.5 -46.5q0 -66 -64 -65h-637v-553h580q63 0 63 -63.5t-63 -63.5h-580v-553h668q63 0 63 -63q0 -66 -63 -66h-737q-27 0 -46.5 19.5t-19.5 46.5zM457 1683q0 14 8 27l172 309q18 33 55 33q61 0 62 -59 q0 -16 -9 -31l-182 -303q-18 -29 -49 -29q-57 0 -57 53z" />
<glyph unicode="&#xca;" horiz-adv-x="1122" d="M174 66v1361q0 27 19.5 46.5t46.5 19.5h706q27 0 45.5 -19.5t18.5 -46.5q0 -66 -64 -65h-637v-553h580q63 0 63 -63.5t-63 -63.5h-580v-553h668q63 0 63 -63q0 -66 -63 -66h-737q-27 0 -46.5 19.5t-19.5 46.5zM262 1718q0 25 19 43l264 267q17 17 40 16h5q29 0 45 -16 l264 -269q18 -18 19 -43q0 -55 -56 -55q-23 0 -39 16l-233 224l-234 -224q-16 -16 -37 -16q-57 0 -57 57z" />
<glyph unicode="&#xcb;" horiz-adv-x="1128" d="M180 66v1361q0 27 19.5 46.5t46.5 19.5h706q27 0 45.5 -19.5t18.5 -46.5q0 -66 -64 -65h-637v-553h580q63 0 63 -63.5t-63 -63.5h-580v-553h668q63 0 64 -63q0 -66 -64 -66h-737q-27 0 -46.5 19.5t-19.5 46.5zM295 1819q0 41 28.5 69.5t69.5 28.5t71 -28.5t30 -69.5 t-30 -71t-71 -30t-69.5 30t-28.5 71zM700 1819q0 41 30 69.5t71 28.5t69.5 -28.5t28.5 -69.5t-28.5 -71t-69.5 -30t-71 30t-30 71z" />
<glyph unicode="&#xcc;" horiz-adv-x="485" d="M115 1993q0 59 61 59q37 0 55 -33l172 -309q8 -12 9 -27q0 -53 -58 -53q-31 0 -49 29l-182 303q-8 15 -8 31zM174 49v1395q0 29 20.5 48t47.5 19q68 0 67 -67v-1395q0 -68 -67 -67q-27 0 -47.5 20t-20.5 47z" />
<glyph unicode="&#xcd;" horiz-adv-x="485" d="M84 1683q0 14 8 27l172 309q18 33 55 33q61 0 62 -59q0 -16 -8 -31l-183 -303q-18 -29 -49 -29q-57 0 -57 53zM174 49v1395q0 29 20.5 48t47.5 19q68 0 67 -67v-1395q0 -68 -67 -67q-27 0 -47.5 20t-20.5 47z" />
<glyph unicode="&#xce;" horiz-adv-x="485" d="M-84 1718q0 25 18 43l265 267q17 17 39 16h6q29 0 45 -16l264 -269q18 -18 18 -43q0 -55 -55 -55q-23 0 -39 16l-233 224l-234 -224q-16 -16 -37 -16q-57 0 -57 57zM174 49v1395q0 29 20.5 48t47.5 19q68 0 67 -67v-1395q0 -68 -67 -67q-27 0 -47.5 20t-20.5 47z" />
<glyph unicode="&#xcf;" horiz-adv-x="485" d="M-57 1819q0 41 29.5 70.5t70.5 29.5t69.5 -29.5t28.5 -70.5t-28.5 -71t-69.5 -30t-70.5 30t-29.5 71zM174 49v1395q0 29 20.5 48t47.5 19q68 0 67 -67v-1395q0 -68 -67 -67q-27 0 -47.5 20t-20.5 47zM350 1819q0 41 29 70.5t69.5 29.5t70.5 -29.5t30 -70.5t-30 -71 t-70.5 -30t-69.5 30t-29 71z" />
<glyph unicode="&#xd0;" horiz-adv-x="1345" d="M31 733.5q0 63.5 63 63.5h113v628q0 29 20.5 48.5t46.5 19.5h406q526 0 526 -557v-381q0 -555 -526 -555h-406q-27 0 -47 20.5t-20 47.5v602h-113q-63 0 -63 63.5zM342 127h334q395 0 395 428v379q0 428 -395 428h-334v-565h248q63 0 63 -63.5t-63 -63.5h-248v-543z" />
<glyph unicode="&#xd1;" horiz-adv-x="1363" d="M174 45v1403q0 63 68 63q43 0 67 -38l754 -1217v1192q0 63 63.5 63t63.5 -63v-1403q0 -63 -68 -63q-43 0 -65 34l-756 1219v-1190q0 -63 -63.5 -63t-63.5 63zM356 1802q0 49 55.5 85t129.5 38h6q61 0 138 -40q81 -42 124 -42q51 2 86 31t53 29q53 0 56 -62 q0 -49 -55.5 -85t-129.5 -38h-6q-61 0 -138 39q-81 41 -124 41q-51 -2 -86 -30.5t-53 -28.5h-4q-50 -1 -52 63z" />
<glyph unicode="&#xd2;" horiz-adv-x="1280" d="M139 535v423q0 236 111 381q129 172 391 172q260 0 391 -172q109 -145 109 -381v-423q0 -236 -109 -381q-131 -172 -391 -172q-262 0 -391 172q-111 145 -111 381zM274 535q0 -428 367 -429q365 0 365 429v423q0 428 -365 428q-367 0 -367 -428v-423zM526 1993 q0 59 62 59q37 0 55 -33l172 -309q8 -12 8 -27q0 -53 -57 -53q-31 0 -49 29l-182 303q-9 15 -9 31z" />
<glyph unicode="&#xd3;" horiz-adv-x="1280" d="M139 535v423q0 236 111 381q129 172 391 172q260 0 391 -172q109 -145 109 -381v-423q0 -236 -109 -381q-131 -172 -391 -172q-262 0 -391 172q-111 145 -111 381zM274 535q0 -428 367 -429q365 0 365 429v423q0 428 -365 428q-367 0 -367 -428v-423zM471 1683q0 14 8 27 l172 309q18 33 56 33q61 0 61 -59q0 -16 -8 -31l-182 -303q-18 -29 -50 -29q-57 0 -57 53z" />
<glyph unicode="&#xd4;" horiz-adv-x="1280" d="M139 535v423q0 236 111 381q129 172 391 172q260 0 391 -172q109 -145 109 -381v-423q0 -236 -109 -381q-131 -172 -391 -172q-262 0 -391 172q-111 145 -111 381zM274 535q0 -428 367 -429q365 0 365 429v423q0 428 -365 428q-367 0 -367 -428v-423zM307 1718 q0 25 19 43l264 267q17 17 40 16h5q29 0 45 -16l264 -269q18 -18 19 -43q0 -55 -56 -55q-23 0 -39 16l-233 224l-234 -224q-16 -16 -36 -16q-58 0 -58 57z" />
<glyph unicode="&#xd5;" horiz-adv-x="1280" d="M139 535v423q0 236 111 381q129 172 391 172q260 0 391 -172q109 -145 109 -381v-423q0 -236 -109 -381q-131 -172 -391 -172q-262 0 -391 172q-111 145 -111 381zM274 535q0 -428 367 -429q365 0 365 429v423q0 428 -365 428q-367 0 -367 -428v-423zM313 1802 q0 49 55.5 85t129.5 38h6q61 0 138 -40q81 -42 124 -42q51 2 86 31t53 29q53 0 56 -62q0 -49 -55.5 -85t-129.5 -38h-6q-61 0 -138 39q-81 41 -124 41q-51 -2 -86 -30.5t-53 -28.5h-4q-50 -1 -52 63z" />
<glyph unicode="&#xd6;" horiz-adv-x="1280" d="M139 535v423q0 236 111 381q129 172 391 172q260 0 391 -172q109 -145 109 -381v-423q0 -236 -109 -381q-131 -172 -391 -172q-262 0 -391 172q-111 145 -111 381zM274 535q0 -428 367 -429q365 0 365 429v423q0 428 -365 428q-367 0 -367 -428v-423zM328 1819 q0 41 29.5 70.5t70.5 29.5t69.5 -29.5t28.5 -70.5t-28.5 -71t-69.5 -30t-70.5 30t-29.5 71zM735 1819q0 41 29 70.5t69.5 29.5t70.5 -29.5t30 -70.5t-30 -71t-70.5 -30t-69.5 30t-29 71z" />
<glyph unicode="&#xd7;" horiz-adv-x="860" d="M115 305q0 27 18 45l209 209l-209 209q-18 18 -18 45q0 61 61 61q27 0 45 -18l209 -209l209 209q18 18 45 18q61 0 61 -61q0 -27 -18 -45l-209 -209l209 -209q18 -18 18 -45q0 -61 -61 -61q-27 0 -45 18l-209 209l-209 -209q-18 -18 -45 -18q-61 0 -61 61z" />
<glyph unicode="&#xd8;" horiz-adv-x="1280" d="M139 535v423q0 236 111 381q129 172 391 172q145 0 258 -59l37 86q15 32 43 32q12 0 27 -5q31 -15 31 -43q0 -12 -7 -27l-45 -104q156 -143 156 -433v-423q0 -236 -109 -381q-131 -172 -391 -172q-154 0 -258 57l-37 -82q-14 -33 -42 -33q-12 0 -28 6q-33 14 -32 42 q0 12 6 26l47 104q-158 150 -158 433zM274 535q0 -193 80 -302l492 1102q-84 51 -205 51q-367 0 -367 -428v-423zM434 158q84 -51 207 -52q365 0 365 429v423q0 193 -80 302z" />
<glyph unicode="&#xd9;" horiz-adv-x="1282" d="M139 485v959q0 29 20.5 48t47.5 19q29 0 48 -19t19 -48v-957q0 -172 86 -270q94 -113 281 -113q184 0 281 113q84 98 84 270v957q0 29 20.5 48t46.5 19q68 0 68 -67v-959q0 -221 -121 -356q-133 -147 -379 -147q-248 0 -381 147q-121 135 -121 356zM492 1993q0 59 61 59 q37 0 55 -33l172 -309q8 -12 8 -27q0 -53 -57 -53q-31 0 -49 29l-182 303q-8 15 -8 31z" />
<glyph unicode="&#xda;" horiz-adv-x="1282" d="M139 485v959q0 29 20.5 48t47.5 19q29 0 48 -19t19 -48v-957q0 -172 86 -270q94 -113 281 -113q184 0 281 113q84 98 84 270v957q0 29 20.5 48t46.5 19q68 0 68 -67v-959q0 -221 -121 -356q-133 -147 -379 -147q-248 0 -381 147q-121 135 -121 356zM508 1683q0 14 8 27 l172 309q18 33 55 33q61 0 62 -59q0 -16 -8 -31l-183 -303q-18 -29 -49 -29q-57 0 -57 53z" />
<glyph unicode="&#xdb;" horiz-adv-x="1282" d="M139 485v959q0 29 20.5 48t47.5 19q29 0 48 -19t19 -48v-957q0 -172 86 -270q94 -113 281 -113q184 0 281 113q84 98 84 270v957q0 29 20.5 48t46.5 19q68 0 68 -67v-959q0 -221 -121 -356q-133 -147 -379 -147q-248 0 -381 147q-121 135 -121 356zM303 1718q0 25 19 43 l264 267q17 17 40 16h5q29 0 45 -16l264 -269q18 -18 18 -43q0 -55 -55 -55q-23 0 -39 16l-233 224l-234 -224q-16 -16 -37 -16q-57 0 -57 57z" />
<glyph unicode="&#xdc;" horiz-adv-x="1282" d="M139 485v959q0 29 20.5 48t47.5 19q29 0 48 -19t19 -48v-957q0 -172 86 -270q94 -113 281 -113q184 0 281 113q84 98 84 270v957q0 29 20.5 48t46.5 19q68 0 68 -67v-959q0 -221 -121 -356q-133 -147 -379 -147q-248 0 -381 147q-121 135 -121 356zM334 1819 q0 41 29.5 70.5t70.5 29.5t69.5 -29.5t28.5 -70.5t-28.5 -71t-69.5 -30t-70.5 30t-29.5 71zM741 1819q0 41 29 70.5t70 29.5t70.5 -29.5t29.5 -70.5t-29.5 -71t-70.5 -30t-70 30t-29 71z" />
<glyph unicode="&#xdd;" horiz-adv-x="1007" d="M0 1446q0 27 21.5 46t48.5 19q41 0 59 -41q129 -303 346 -716l29 -56q229 428 377 772q18 41 57 41q27 0 48.5 -18t21.5 -47q0 -12 -7 -27q-172 -397 -432 -874v-496q0 -68 -67 -67q-27 0 -47.5 20.5t-20.5 46.5v496q-274 514 -428 872q-6 15 -6 29zM365 1683q0 14 8 27 l172 309q18 33 55 33q61 0 62 -59q0 -16 -9 -31l-182 -303q-18 -29 -49 -29q-57 0 -57 53z" />
<glyph unicode="&#xde;" horiz-adv-x="1198" d="M174 -293v1940q0 29 20.5 48t47.5 19q68 0 67 -67v-496h328q242 0 367 -127q104 -104 104 -268v-103q0 -172 -120 -278.5t-329 -106.5h-350v-561q0 -68 -67 -67q-27 0 -47.5 19t-20.5 48zM309 393h346q156 0 242 78q76 72 76 184v101q0 109 -70 180q-90 88 -272 88h-322 v-631z" />
<glyph unicode="&#xdf;" horiz-adv-x="1140" d="M150 -186v1171q0 256 118 385q111 121 305 121q158 0 260.5 -100.5t102.5 -270.5q0 -256 -252 -325q344 -76 344 -400q0 -205 -154 -309q-141 -96 -382 -96h-93q-59 0 -59 61q0 59 59 60h86q412 0 412 295q0 319 -451 319h-47q-57 0 -57 57q0 55 57 56h76q125 0 217 59 q117 76 117 213q0 121 -72 193q-66 63 -166 63q-291 0 -290 -381v-1171q0 -27 -19.5 -46.5t-46.5 -19.5q-65 0 -65 66z" />
<glyph unicode="&#xe0;" horiz-adv-x="1003" d="M78 281v16q0 129 84 205q94 84 280 84h256v55q0 150 -45 209q-51 68 -192 68q-123 0 -221 -56q-16 -8 -33 -8q-59 0 -60 59q0 31 31 50q111 70 287 69q207 0 291 -104q74 -92 73 -295v-402q0 -106 60 -135q33 -14 33 -49q0 -59 -64 -59q-53 0 -98 43q-27 27 -41 71 q-90 -115 -289 -114q-180 0 -272 88q-80 76 -80 205zM209 279q0 -180 237 -181q252 0 252 244v135h-247q-242 0 -242 -180v-18zM328 1583q0 59 61 59q37 0 55 -32l172 -310q8 -12 9 -26q0 -53 -58 -53q-31 0 -49 28l-182 303q-8 15 -8 31z" />
<glyph unicode="&#xe1;" horiz-adv-x="1003" d="M78 281v16q0 129 84 205q94 84 280 84h256v55q0 150 -45 209q-51 68 -192 68q-123 0 -221 -56q-16 -8 -33 -8q-59 0 -60 59q0 31 31 50q111 70 287 69q207 0 291 -104q74 -92 73 -295v-402q0 -106 60 -135q33 -14 33 -49q0 -59 -64 -59q-53 0 -98 43q-27 27 -41 71 q-90 -115 -289 -114q-180 0 -272 88q-80 76 -80 205zM209 279q0 -180 237 -181q252 0 252 244v135h-247q-242 0 -242 -180v-18zM340 1274q0 14 8 26l172 310q18 33 55 32q61 0 62 -59q0 -16 -8 -31l-183 -303q-18 -29 -49 -28q-57 0 -57 53z" />
<glyph unicode="&#xe2;" horiz-adv-x="1003" d="M78 281v16q0 129 84 205q94 84 280 84h256v55q0 150 -45 209q-51 68 -192 68q-123 0 -221 -56q-16 -8 -33 -8q-59 0 -60 59q0 31 31 50q111 70 287 69q207 0 291 -104q74 -92 73 -295v-402q0 -106 60 -135q33 -14 33 -49q0 -59 -64 -59q-53 0 -98 43q-27 27 -41 71 q-90 -115 -289 -114q-180 0 -272 88q-80 76 -80 205zM150 1309q0 25 18 43l264 266q17 17 40 17q3 0 5 -1q29 0 45 -16l264 -268q18 -18 19 -43q0 -55 -55 -56q-23 0 -39 17l-234 223l-233 -223q-16 -16 -37 -17q-57 1 -57 58zM209 279q0 -180 237 -181q252 0 252 244v135 h-247q-242 0 -242 -180v-18z" />
<glyph unicode="&#xe3;" horiz-adv-x="1003" d="M78 281v16q0 129 84 205q94 84 280 84h256v55q0 150 -45 209q-51 68 -192 68q-123 0 -221 -56q-16 -8 -33 -8q-59 0 -60 59q0 31 31 50q111 70 287 69q207 0 291 -104q74 -92 73 -295v-402q0 -106 60 -135q33 -14 33 -49q0 -59 -64 -59q-53 0 -98 43q-27 27 -41 71 q-90 -115 -289 -114q-180 0 -272 88q-80 76 -80 205zM147 1393q0 49 55.5 84.5t129.5 38.5h6q61 0 138 -40q81 -42 124 -42q51 2 86 30.5t53 28.5q53 0 56 -61q0 -49 -55.5 -85t-129.5 -38h-6q-61 0 -138 39q-81 41 -124 41q-51 -2 -86 -31t-53 -29h-3q-51 0 -53 64z M209 279q0 -180 237 -181q252 0 252 244v135h-247q-242 0 -242 -180v-18z" />
<glyph unicode="&#xe4;" horiz-adv-x="1003" d="M78 281v16q0 129 84 205q94 84 280 84h256v55q0 150 -45 209q-51 68 -192 68q-123 0 -221 -56q-16 -8 -33 -8q-59 0 -60 59q0 31 31 50q111 70 287 69q207 0 291 -104q74 -92 73 -295v-402q0 -106 60 -135q33 -14 33 -49q0 -59 -64 -59q-53 0 -98 43q-27 27 -41 71 q-90 -115 -289 -114q-180 0 -272 88q-80 76 -80 205zM174 1409q0 41 29.5 70.5t70.5 29.5t70 -29.5t29 -70.5t-29 -70.5t-70 -29.5t-70.5 29.5t-29.5 70.5zM209 279q0 -180 237 -181q252 0 252 244v135h-247q-242 0 -242 -180v-18zM582 1409q0 41 28.5 70.5t69.5 29.5 t70.5 -29.5t29.5 -70.5t-29.5 -70.5t-70.5 -29.5t-69.5 29.5t-28.5 70.5z" />
<glyph unicode="&#xe5;" horiz-adv-x="1003" d="M78 281v16q0 129 84 205q94 84 280 84h256v55q0 150 -45 209q-51 68 -192 68q-123 0 -221 -56q-16 -8 -33 -8q-59 0 -60 59q0 31 31 50q111 70 287 69q207 0 291 -104q74 -92 73 -295v-402q0 -106 60 -135q33 -14 33 -49q0 -59 -64 -59q-53 0 -98 43q-27 27 -41 71 q-90 -115 -289 -114q-180 0 -272 88q-80 76 -80 205zM209 279q0 -180 237 -181q252 0 252 244v135h-247q-242 0 -242 -180v-18zM229 1411q0 98 70 168t168 70t168 -70t70 -168q0 -100 -70 -170t-168 -70t-168 70t-70 170zM317 1411.5q0 -61.5 45.5 -106.5t104.5 -45 q61 0 105 45t44 106.5t-44 104.5t-105 43t-105.5 -43t-44.5 -104.5z" />
<glyph unicode="&#xe6;" horiz-adv-x="1574" d="M78 281v14q0 127 84 203q94 84 280 84h256v59q0 150 -45 209q-51 68 -192 68q-123 0 -221 -56q-16 -8 -33 -8q-59 0 -60 59q0 31 31 50q111 70 287 69q242 0 315 -151q94 152 310 151q387 0 387 -424v-80q0 -55 -54 -55h-594v-65q0 -303 263 -304q160 0 270 66q12 8 27 8 q35 0 49 -35q6 -15 6 -27q0 -28 -31 -48q-131 -80 -326 -80q-229 0 -323 170q-84 -170 -334 -170q-180 0 -272 88q-80 76 -80 205zM209 279q0 -180 237 -181q252 0 252 244v131h-247q-242 0 -242 -180v-14zM829 582h521v39q0 297 -260.5 297t-260.5 -300v-36z" />
<glyph unicode="&#xe7;" horiz-adv-x="849" d="M115 438v142q0 195 98 317q106 135 295 135q150 0 250 -59q31 -18 30 -49q0 -61 -57 -62q-14 0 -29 8q-84 43 -188 43q-129 0 -199.5 -89t-70.5 -238v-152q0 -328 268 -328q111 0 195 46q16 8 30 8q33 0 47 -33q8 -17 9 -31q0 -29 -33 -47q-98 -53 -223 -59v-66 q229 0 229 -166q0 -78 -64.5 -124t-175.5 -46q-131 0 -131 47q0 35 103 35q152 0 151 94q0 61 -67 78l-109 17q-27 10 -24 49l4 84q-170 16 -258 141q-80 115 -80 305z" />
<glyph unicode="&#xe8;" horiz-adv-x="989" d="M115 414v190q0 188 88 301q102 127 301 127q387 0 387 -424v-84q0 -55 -53 -55h-594v-61q0 -303 262 -304q158 0 270 66q12 8 27 8q35 0 49 -35q8 -16 7 -30q0 -28 -30 -45q-131 -80 -325 -80q-201 0 -301 127q-88 111 -88 299zM244 580h520v41q0 297 -260 297t-260 -300 v-38zM369 1583q0 59 61 59q37 0 55 -32l172 -310q8 -12 9 -26q0 -53 -58 -53q-31 0 -49 28l-182 303q-8 15 -8 31z" />
<glyph unicode="&#xe9;" horiz-adv-x="989" d="M115 414v190q0 188 88 301q102 127 301 127q387 0 387 -424v-84q0 -55 -53 -55h-594v-61q0 -303 262 -304q158 0 270 66q12 8 27 8q35 0 49 -35q8 -16 7 -30q0 -28 -30 -45q-131 -80 -325 -80q-201 0 -301 127q-88 111 -88 299zM244 580h520v41q0 297 -260 297t-260 -300 v-38zM356 1274q0 14 9 26l172 310q18 33 55 32q61 0 61 -59q0 -16 -8 -31l-182 -303q-18 -29 -49 -28q-58 0 -58 53z" />
<glyph unicode="&#xea;" horiz-adv-x="989" d="M115 414v190q0 188 88 301q102 127 301 127q387 0 387 -424v-84q0 -55 -53 -55h-594v-61q0 -303 262 -304q158 0 270 66q12 8 27 8q35 0 49 -35q8 -16 7 -30q0 -28 -30 -45q-131 -80 -325 -80q-201 0 -301 127q-88 111 -88 299zM182 1309q0 25 19 43l264 266q17 17 40 17 q3 0 5 -1q29 0 45 -16l264 -268q18 -18 19 -43q0 -55 -56 -56q-23 0 -39 17l-233 223l-234 -223q-16 -16 -36 -17q-58 1 -58 58zM244 580h520v41q0 297 -260 297t-260 -300v-38z" />
<glyph unicode="&#xeb;" horiz-adv-x="989" d="M115 414v190q0 188 88 301q102 127 301 127q387 0 387 -424v-84q0 -55 -53 -55h-594v-61q0 -303 262 -304q158 0 270 66q12 8 27 8q35 0 49 -35q8 -16 7 -30q0 -28 -30 -45q-131 -80 -325 -80q-201 0 -301 127q-88 111 -88 299zM203 1409q0 41 29.5 70.5t70.5 29.5 t69.5 -29.5t28.5 -70.5t-28.5 -70.5t-69.5 -29.5t-70.5 29.5t-29.5 70.5zM244 580h520v41q0 297 -260 297t-260 -300v-38zM610 1409q0 41 29 70.5t70 29.5t70.5 -29.5t29.5 -70.5t-29.5 -70.5t-70.5 -29.5t-70 29.5t-29 70.5z" />
<glyph unicode="&#xec;" horiz-adv-x="428" d="M82 1583q0 59 61 59q37 0 56 -32l172 -310q8 -12 8 -26q0 -53 -57 -53q-31 0 -50 28l-182 303q-8 15 -8 31zM150 53v914q0 27 19 46t46 19t46.5 -19.5t19.5 -45.5v-914q0 -27 -19.5 -46t-46.5 -19q-65 -1 -65 65z" />
<glyph unicode="&#xed;" horiz-adv-x="428" d="M61 1274q0 14 9 26l172 310q18 33 55 32q61 0 61 -59q0 -16 -8 -31l-182 -303q-18 -29 -49 -28q-58 0 -58 53zM150 53v914q0 27 19 46t46 19t46.5 -19.5t19.5 -45.5v-914q0 -27 -19.5 -46t-46.5 -19q-65 -1 -65 65z" />
<glyph unicode="&#xee;" horiz-adv-x="428" d="M-113 1309q0 25 19 43l264 266q17 17 40 17q3 0 5 -1q29 0 45 -16l264 -268q18 -18 19 -43q0 -55 -56 -56q-23 0 -38 17l-234 223l-233 -223q-16 -16 -37 -17q-58 1 -58 58zM150 53v914q0 27 19 46t46 19t46.5 -19.5t19.5 -45.5v-914q0 -27 -19.5 -46t-46.5 -19 q-65 -1 -65 65z" />
<glyph unicode="&#xef;" horiz-adv-x="428" d="M-84 1409q0 41 29.5 70.5t70.5 29.5t70 -29.5t29 -70.5t-29 -70.5t-70 -29.5t-70.5 29.5t-29.5 70.5zM150 53v914q0 27 19 46t46 19t46.5 -19.5t19.5 -45.5v-914q0 -27 -19.5 -46t-46.5 -19q-65 -1 -65 65zM324 1409q0 41 28.5 70.5t69.5 29.5t70.5 -29.5t29.5 -70.5 t-29.5 -70.5t-70.5 -29.5t-69.5 29.5t-28.5 70.5z" />
<glyph unicode="&#xf0;" horiz-adv-x="1110" d="M102 457q0 205 144 329q127 109 297 109q143 0 270 -78q-76 207 -252 391l-188 -141q-19 -14 -36 -14q-22 0 -40 24q-13 18 -13 35q0 22 23 39l176 133q-39 35 -121 98q-29 20 -28 52q0 68 65 67q20 0 39 -14q94 -72 152 -123l170 129q18 13 34 13q22 0 42 -23 q12 -18 11 -34q0 -23 -24 -42l-155 -119q342 -358 342 -796q0 -246 -138 -383q-125 -127 -323 -127q-201 0 -324 131t-123 344zM233 457q0 -160 86.5 -255.5t229.5 -95.5t231 93q98 100 99 293q0 84 -17 172q-129 111 -307 110q-125 0 -217 -80q-105 -90 -105 -237z" />
<glyph unicode="&#xf1;" horiz-adv-x="1093" d="M80 958q0 61 65 62q51 0 99 -43q33 -31 47 -76q111 131 325 131q330 0 330 -368v-611q0 -66 -65 -65q-27 0 -46.5 19.5t-19.5 45.5v602q0 125 -43 183q-49 70 -174 69q-201 0 -287 -153v-701q0 -27 -19.5 -46t-45.5 -19q-66 0 -66 65v723q0 102 -67 133q-33 14 -33 49z M231 1393q0 49 55.5 84.5t129.5 38.5h6q61 0 138 -40q81 -42 124 -42q51 2 86 30.5t53 28.5q53 0 56 -61q0 -49 -55.5 -85t-129.5 -38h-6q-61 0 -138 39q-81 41 -124 41q-51 -2 -86 -31t-53 -29h-3q-51 0 -53 64z" />
<glyph unicode="&#xf2;" d="M115 406v208q0 186 92 295q102 123 305 123t305 -123q92 -109 92 -295v-208q0 -186 -92 -295q-102 -123 -305 -123t-305 123q-92 109 -92 295zM244 406q0 -295 268 -295q266 0 266 295v208q0 293 -266 293q-268 0 -268 -293v-208zM379 1583q0 59 61 59q37 0 56 -32 l172 -310q8 -12 8 -26q0 -53 -58 -53q-31 0 -49 28l-182 303q-8 15 -8 31z" />
<glyph unicode="&#xf3;" d="M115 406v208q0 186 92 295q102 123 305 123t305 -123q92 -109 92 -295v-208q0 -186 -92 -295q-102 -123 -305 -123t-305 123q-92 109 -92 295zM244 406q0 -295 268 -295q266 0 266 295v208q0 293 -266 293q-268 0 -268 -293v-208zM354 1274q0 14 8 26l173 310 q18 33 55 32q61 0 61 -59q0 -16 -8 -31l-182 -303q-18 -29 -49 -28q-58 0 -58 53z" />
<glyph unicode="&#xf4;" d="M115 406v208q0 186 92 295q102 123 305 123t305 -123q92 -109 92 -295v-208q0 -186 -92 -295q-102 -123 -305 -123t-305 123q-92 109 -92 295zM184 1309q0 25 19 43l264 266q17 17 40 17q3 0 5 -1q29 0 45 -16l264 -268q18 -18 19 -43q0 -55 -56 -56q-23 0 -39 17 l-233 223l-233 -223q-16 -16 -37 -17q-58 1 -58 58zM244 406q0 -295 268 -295q266 0 266 295v208q0 293 -266 293q-268 0 -268 -293v-208z" />
<glyph unicode="&#xf5;" d="M115 406v208q0 186 92 295q102 123 305 123t305 -123q92 -109 92 -295v-208q0 -186 -92 -295q-102 -123 -305 -123t-305 123q-92 109 -92 295zM190 1393q0 49 55.5 84.5t129.5 38.5h6q61 0 138 -40q81 -42 124 -42q51 2 86 30.5t53 28.5q53 0 56 -61q0 -49 -55.5 -85 t-129.5 -38h-6q-61 0 -138 39q-81 41 -124 41q-51 -2 -86 -31t-53 -29h-3q-51 0 -53 64zM244 406q0 -295 268 -295q266 0 266 295v208q0 293 -266 293q-268 0 -268 -293v-208z" />
<glyph unicode="&#xf6;" d="M115 406v208q0 186 92 295q102 123 305 123t305 -123q92 -109 92 -295v-208q0 -186 -92 -295q-102 -123 -305 -123t-305 123q-92 109 -92 295zM207 1409q0 41 29.5 70.5t70.5 29.5t70 -29.5t29 -70.5t-29 -70.5t-70 -29.5t-70.5 29.5t-29.5 70.5zM244 406 q0 -295 268 -295q266 0 266 295v208q0 293 -266 293q-268 0 -268 -293v-208zM614 1409q0 41 29 70.5t70 29.5t70.5 -29.5t29.5 -70.5t-29.5 -70.5t-70.5 -29.5t-70 29.5t-29 70.5z" />
<glyph unicode="&#xf7;" horiz-adv-x="1144" d="M180 559q0 61 64 62h657q63 0 64 -62q0 -63 -64 -63h-657q-64 0 -64 63zM473 911q0 41 28.5 70t69.5 29t70 -29t29 -70t-29 -69.5t-70 -28.5q-39 0 -68.5 29.5t-29.5 68.5zM473 205q0 41 28.5 70.5t69.5 29.5t70 -29.5t29 -70.5t-29 -70t-70 -29q-39 0 -68.5 30t-29.5 69 z" />
<glyph unicode="&#xf8;" d="M115 406v208q0 186 92 295q102 123 305 123q94 0 168 -28l33 75q16 27 41 28q11 0 22 -5q30 -13 30 -38q0 -11 -5 -24l-37 -82q145 -109 145 -344v-208q0 -186 -92 -295q-102 -123 -305 -123q-92 0 -168 26l-35 -73q-14 -30 -38 -30q-10 0 -23 5q-31 14 -31 39q0 11 6 25 l37 79q-145 109 -145 347zM244 406q0 -150 71 -224l314 707q-49 18 -117 18q-268 0 -268 -293v-208zM395 129q49 -18 117 -18q266 0 266 295v208q0 150 -69 222z" />
<glyph unicode="&#xf9;" horiz-adv-x="1095" d="M147 354v613q0 27 19.5 46t46.5 19t46.5 -19.5t19.5 -45.5v-602q0 -127 43 -183q51 -68 176 -67q211 0 286 161v691q0 27 19.5 46t46.5 19t46 -19.5t19 -45.5v-736q0 -106 66 -135q33 -14 33 -49q0 -59 -64 -59q-53 0 -100 43q-33 31 -47 84q-115 -127 -324 -127 q-332 -1 -332 366zM379 1583q0 59 61 59q37 0 56 -32l172 -310q8 -12 8 -26q0 -53 -58 -53q-31 0 -49 28l-182 303q-8 15 -8 31z" />
<glyph unicode="&#xfa;" horiz-adv-x="1095" d="M147 354v613q0 27 19.5 46t46.5 19t46.5 -19.5t19.5 -45.5v-602q0 -127 43 -183q51 -68 176 -67q211 0 286 161v691q0 27 19.5 46t46.5 19t46 -19.5t19 -45.5v-736q0 -106 66 -135q33 -14 33 -49q0 -59 -64 -59q-53 0 -100 43q-33 31 -47 84q-115 -127 -324 -127 q-332 -1 -332 366zM379 1274q0 14 8 26l172 310q18 33 55 32q61 0 62 -59q0 -16 -8 -31l-183 -303q-18 -29 -49 -28q-57 0 -57 53z" />
<glyph unicode="&#xfb;" horiz-adv-x="1095" d="M147 354v613q0 27 19.5 46t46.5 19t46.5 -19.5t19.5 -45.5v-602q0 -127 43 -183q51 -68 176 -67q211 0 286 161v691q0 27 19.5 46t46.5 19t46 -19.5t19 -45.5v-736q0 -106 66 -135q33 -14 33 -49q0 -59 -64 -59q-53 0 -100 43q-33 31 -47 84q-115 -127 -324 -127 q-332 -1 -332 366zM205 1309q0 25 18 43l264 266q17 17 40 17q3 0 5 -1q29 0 46 -16l264 -268q18 -18 18 -43q0 -55 -55 -56q-23 0 -39 17l-234 223l-233 -223q-16 -16 -37 -17q-57 1 -57 58z" />
<glyph unicode="&#xfc;" horiz-adv-x="1095" d="M147 354v613q0 27 19.5 46t46.5 19t46.5 -19.5t19.5 -45.5v-602q0 -127 43 -183q51 -68 176 -67q211 0 286 161v691q0 27 19.5 46t46.5 19t46 -19.5t19 -45.5v-736q0 -106 66 -135q33 -14 33 -49q0 -59 -64 -59q-53 0 -100 43q-33 31 -47 84q-115 -127 -324 -127 q-332 -1 -332 366zM229 1409q0 41 30 70.5t71 29.5t69.5 -29.5t28.5 -70.5t-28.5 -70.5t-69.5 -29.5t-71 29.5t-30 70.5zM637 1409q0 41 28.5 70.5t69.5 29.5t71 -29.5t30 -70.5t-30 -70.5t-71 -29.5t-69.5 29.5t-28.5 70.5z" />
<glyph unicode="&#xfd;" horiz-adv-x="917" d="M16 -309q0 59 62 61q197 4 313 240q-236 592 -354 958q-4 10 -4 21q0 61 67 61q43 0 58 -45q119 -369 301 -829l284 829q16 45 60 45q68 0 67 -63q0 -12 -4 -25l-282 -805q-94 -270 -207 -387q-115 -123 -293 -127h-4q-64 0 -64 66zM338 1274q0 14 8 26l172 310 q18 33 55 32q61 0 62 -59q0 -16 -8 -31l-183 -303q-18 -29 -49 -28q-57 0 -57 53z" />
<glyph unicode="&#xfe;" horiz-adv-x="999" d="M133 -311v1763q0 27 19.5 46.5t46 19.5t46 -19.5t19.5 -46.5v-504q117 82 250 82q373 0 373 -401v-197q0 -446 -365 -446q-145 0 -258 90v-387q0 -27 -19.5 -46.5t-45.5 -19.5q-66 0 -66 66zM264 213q100 -109 244 -109q248 0 248 316v213q0 143 -59.5 211.5t-194.5 68.5 q-121 0 -238 -98v-602z" />
<glyph unicode="&#xff;" horiz-adv-x="907" d="M16 -309q0 59 62 61q197 4 313 240q-236 592 -354 958q-4 10 -4 21q0 61 67 61q43 0 58 -45q119 -369 301 -829l284 829q16 45 60 45q68 0 67 -63q0 -12 -4 -25l-282 -805q-94 -270 -207 -387q-115 -123 -293 -127h-4q-64 0 -64 66zM158 1409q0 41 29.5 70.5t70.5 29.5 t69.5 -29.5t28.5 -70.5t-28.5 -70.5t-69.5 -29.5t-70.5 29.5t-29.5 70.5zM565 1409q0 41 29 70.5t70 29.5t70.5 -29.5t29.5 -70.5t-29.5 -70.5t-70.5 -29.5t-70 29.5t-29 70.5z" />
<glyph unicode="&#x152;" horiz-adv-x="1953" d="M139 537v421q0 236 111 381q129 172 391 172q238 0 365 -141v57q0 27 19 46.5t46 19.5h707q27 0 45 -19.5t18 -46.5q0 -66 -63 -65h-637v-553h579q63 0 63.5 -63.5t-63.5 -63.5h-579v-553h667q63 0 64 -63q0 -66 -64 -66h-737q-66 0 -65 66v59q-127 -141 -365 -141 q-262 0 -391 172q-111 145 -111 381zM274 537q0 -430 367 -431q365 0 365 431v421q0 428 -365 428q-367 0 -367 -428v-421z" />
<glyph unicode="&#x153;" horiz-adv-x="1654" d="M115 406v208q0 186 92 295q102 123 305 123q238 0 334 -176q94 176 323 176q387 0 387 -424v-84q0 -55 -53 -55h-594v-61q0 -303 262 -304q160 0 271 66q12 8 26 8q35 0 50 -35q6 -15 6 -27q0 -28 -31 -48q-131 -80 -326 -80q-227 0 -323 174q-92 -174 -332 -174 q-203 0 -305 123q-92 109 -92 295zM244 406q0 -295 268 -295q266 0 266 295v208q0 293 -266 293q-268 0 -268 -293v-208zM909 580h521v41q0 297 -260.5 297t-260.5 -300v-38z" />
<glyph unicode="&#x178;" horiz-adv-x="1007" d="M-10 1446q0 27 21.5 46t47.5 19q41 0 60 -41q129 -303 346 -716l29 -56q229 428 376 772q18 41 58 41q27 0 48 -18t21 -47q0 -12 -6 -27q-172 -397 -432 -874v-496q0 -27 -19.5 -47t-47.5 -20q-27 0 -47.5 20.5t-20.5 46.5v496q-262 485 -428 872q-6 15 -6 29zM176 1819 q0 41 30 69.5t70.5 28.5t70.5 -28.5t30 -69.5t-30 -71t-70.5 -30t-70.5 30t-30 71zM584 1819q0 41 28.5 69.5t69.5 28.5t70.5 -28.5t29.5 -69.5t-29.5 -71t-70.5 -30t-69.5 30t-28.5 71z" />
<glyph unicode="&#x2c6;" horiz-adv-x="1085" d="M215 1309q0 25 18 43l265 266q17 17 39 17q3 0 6 -1q29 0 45 -16l264 -268q18 -18 18 -43q0 -55 -55 -56q-23 0 -39 17l-233 223l-234 -223q-16 -16 -37 -17q-57 1 -57 58z" />
<glyph unicode="&#x2dc;" horiz-adv-x="1085" d="M219 1393q0 49 55.5 84.5t128.5 38.5h6q61 0 139 -40q81 -42 124 -42q51 2 86 30.5t53 28.5q53 0 55 -61q0 -49 -55 -85t-129 -38h-6q-61 0 -138 39q-81 41 -124 41q-51 -2 -86 -31t-54 -29h-3q-50 0 -52 64z" />
<glyph unicode="&#x2013;" horiz-adv-x="761" d="M-33 557q0 25 18.5 43t45.5 18h702q61 0 62 -61q0 -63 -62 -63h-702q-64 0 -64 63z" />
<glyph unicode="&#x2014;" horiz-adv-x="1507" d="M-33 557q0 25 18.5 43t45.5 18h1448q27 0 45 -18t18 -43q0 -63 -63 -63h-1448q-64 0 -64 63z" />
<glyph unicode="&#x2018;" horiz-adv-x="370" d="M86 1282q0 94 66 170q53 63 94 66h3q31 0 32 -35q0 -16 -33 -48t-39 -79q74 -16 76 -92q0 -41 -29 -70t-70 -29q-98 0 -100 117z" />
<glyph unicode="&#x2019;" horiz-adv-x="370" d="M86 1419q0 41 28.5 70t69.5 29q45 0 73 -32t28 -85q0 -96 -64 -172q-55 -63 -94 -64q-37 0 -37 35q0 14 33 45t39 80q-76 18 -76 94z" />
<glyph unicode="&#x201a;" horiz-adv-x="370" d="M86 82q0 41 28.5 68.5t69.5 27.5q100 0 101 -119q0 -94 -66 -168q-55 -63 -96 -63q-35 0 -35 35q0 14 34 45t40 80q-76 16 -76 94z" />
<glyph unicode="&#x201c;" horiz-adv-x="675" d="M86 1282q0 94 66 170q53 63 94 66h3q31 0 32 -35q0 -16 -33 -48t-39 -79q74 -16 76 -92q0 -41 -29 -70t-70 -29q-98 0 -100 117zM389 1282q0 94 66 170q53 63 94 66h3q30 0 34 -35q0 -16 -34 -48t-40 -79q78 -18 78 -92q0 -41 -29 -70t-69 -29q-45 0 -74 33t-29 84z" />
<glyph unicode="&#x201d;" horiz-adv-x="675" d="M86 1419q0 41 28.5 70t69.5 29q45 0 73 -32t28 -85q0 -96 -64 -172q-55 -63 -94 -64q-37 0 -37 35q0 14 33 45t39 80q-76 18 -76 94zM389 1419q0 41 28.5 70t69.5 29h4q99 0 99 -123q0 -91 -64 -166q-55 -63 -96 -64q-35 0 -35 35q0 14 33 45t39 80q-76 16 -78 94z" />
<glyph unicode="&#x201e;" horiz-adv-x="673" d="M86 82q0 41 28.5 68.5t69.5 27.5q100 0 101 -119q0 -94 -66 -168q-55 -63 -96 -63q-35 0 -35 35q0 14 34 45t40 80q-76 16 -76 94zM389 82q0 41 28.5 68.5t69.5 27.5q100 0 101 -119q0 -94 -66 -168q-55 -63 -96 -63q-35 0 -35 35q0 14 34 45t40 80q-76 16 -76 94z" />
<glyph unicode="&#x2022;" horiz-adv-x="1021" d="M113 686q0 145 103 248.5t248.5 103.5t249 -103.5t103.5 -248.5t-103.5 -248.5t-249 -103.5t-248.5 103.5t-103 248.5z" />
<glyph unicode="&#x2026;" horiz-adv-x="1380" d="M123 80q0 41 28.5 69.5t69.5 28.5t69.5 -28.5t28.5 -69.5t-28.5 -69.5t-69.5 -28.5q-39 0 -68.5 29.5t-29.5 68.5zM584 80q0 41 28.5 69.5t69.5 28.5t69.5 -28.5t28.5 -69.5q0 -39 -28.5 -68.5t-69.5 -29.5t-69.5 28.5t-28.5 69.5zM1044 80q0 41 29 69.5t70 28.5 t69.5 -28.5t28.5 -69.5q0 -39 -28.5 -68.5t-69.5 -29.5t-70 28.5t-29 69.5z" />
<glyph unicode="&#x2039;" horiz-adv-x="690" d="M70 550.5q0 24.5 18 43.5l395 410q18 18 45 18q63 0 64 -61q0 -25 -19 -43l-354 -367l354 -367q16 -18 17 -43q0 -63 -62 -63q-27 0 -45 20l-395 410q-18 18 -18 42.5z" />
<glyph unicode="&#x203a;" horiz-adv-x="690" d="M98 961q0 61 64 61q27 0 45 -18l395 -410q18 -18 18.5 -43t-18.5 -43l-395 -410q-18 -20 -45 -20q-61 0 -62 63q0 25 17 43l354 367l-354 367q-19 18 -19 43z" />
<glyph unicode="&#x2122;" horiz-adv-x="1658" d="M61 1413q0 49 50 49h571q47 0 47 -49t-47 -49h-236v-752q0 -49 -51 -49q-49 0 -49 49v752h-235q-50 0 -50 49zM797 610v815q0 47 49 48q33 0 47 -31l274 -580l273 582q14 29 47 29q49 0 49 -48v-815q0 -47 -47 -47q-49 0 -49 47v625l-230 -490q-14 -29 -45 -28 q-33 0 -47 28l-227 488v-623q0 -47 -47 -47t-47 47z" />
<glyph unicode="&#xe000;" horiz-adv-x="1030" d="M0 1030h1030v-1030h-1030v1030z" />
<glyph unicode="&#xfb01;" horiz-adv-x="1017" d="M37 960.5q0 59.5 59 59.5h72v57q0 205 70 299q82 113 288 113h62q61 0 61 -61.5t-61 -61.5h-53q-143 0 -193 -68q-45 -59 -45 -221v-57h190q59 0 59.5 -59.5t-59.5 -59.5h-190v-848q0 -66 -64 -65q-66 0 -65 65v848h-72q-59 0 -59 59.5zM725 1374q0 33 23.5 56.5 t56.5 23.5t56.5 -23.5t23.5 -56.5t-23.5 -56.5t-56.5 -23.5t-56.5 23.5t-23.5 56.5zM739 53v914q0 27 19.5 46t46 19t46 -19.5t19.5 -45.5v-914q0 -27 -19.5 -46t-45.5 -19q-66 -1 -66 65z" />
<glyph unicode="&#xfb02;" horiz-adv-x="1042" d="M37 960.5q0 59.5 59 59.5h72v57q0 205 70 299q82 113 288 113h62q61 0 61 -61.5t-61 -61.5h-53q-143 0 -193 -68q-45 -59 -45 -221v-57h190q59 0 59.5 -59.5t-59.5 -59.5h-190v-848q0 -66 -64 -65q-66 0 -65 65v848h-72q-59 0 -59 59.5zM733 197v1220q0 66 66 66 q63 0 63 -66v-1186q0 -106 68 -135q33 -14 33 -49q0 -59 -64 -59q-53 0 -100 43q-66 60 -66 166z" />
<glyph unicode="&#xfb03;" horiz-adv-x="1607" d="M37 960.5q0 59.5 59 59.5h72v57q0 205 70 299q82 113 288 113h62q61 0 61 -61.5t-61 -61.5h-53q-143 0 -193 -68q-45 -59 -45 -221v-57h190q59 0 59.5 -59.5t-59.5 -59.5h-190v-848q0 -66 -64 -65q-66 0 -65 65v848h-72q-59 0 -59 59.5zM627 960.5q0 59.5 59 59.5h72v57 q0 205 69 299q82 113 289 113h62q61 0 61 -61.5t-61 -61.5h-54q-143 0 -192 -68q-45 -59 -45 -221v-57h190q59 0 59.5 -59.5t-59.5 -59.5h-190v-848q0 -66 -64 -65q-66 0 -65 65v848h-72q-59 0 -59 59.5zM1315 1374q0 33 23.5 56.5t56 23.5t56.5 -23.5t24 -56.5t-24 -56.5 t-56.5 -23.5t-56 23.5t-23.5 56.5zM1329 53v914q0 27 19.5 46t46 19t46 -19.5t19.5 -45.5v-914q0 -27 -19.5 -46t-45.5 -19q-66 -1 -66 65z" />
<glyph unicode="&#xfb04;" horiz-adv-x="1632" d="M37 960.5q0 59.5 59 59.5h72v57q0 205 70 299q82 113 288 113h62q61 0 61 -61.5t-61 -61.5h-53q-143 0 -193 -68q-45 -59 -45 -221v-57h190q59 0 59.5 -59.5t-59.5 -59.5h-190v-848q0 -66 -64 -65q-66 0 -65 65v848h-72q-59 0 -59 59.5zM627 960.5q0 59.5 59 59.5h72v57 q0 205 69 299q82 113 289 113h62q61 0 61 -61.5t-61 -61.5h-54q-143 0 -192 -68q-45 -59 -45 -221v-57h190q59 0 59.5 -59.5t-59.5 -59.5h-190v-848q0 -66 -64 -65q-66 0 -65 65v848h-72q-59 0 -59 59.5zM1323 197v1220q0 66 66 66q63 0 63 -66v-1186q0 -106 68 -135 q33 -14 32 -49q0 -59 -63 -59q-53 0 -100 43q-66 60 -66 166z" />
</font>
</defs>
</svg>
