<svg xmlns="http://www.w3.org/2000/svg" width="37" height="37" viewBox="0 0 37 37" class=""><g fill="#F5F4F0"><path d="M23.119 19.085a.34.34 0 0 0 .337-.348.344.344 0 0 0-.688.01.343.343 0 0 0 .351.338zM13.636 25.689l1.615-1.452a.67.67 0 0 1 .508-.172l2.748.209 2.555-.542a.675.675 0 0 1 .524.104l1.882 1.285 1.914.189a9.96 9.96 0 0 0 .475-1.494.81.81 0 0 1-.097-.008l-5.25-.721a.673.673 0 0 1-.551-.451l-.933-2.7c-.123-.085-.725-.038-1.005.104l-.946 2.653a.682.682 0 0 1-.489.435l-5.148 1.186a.646.646 0 0 1-.101.015c.184.615.432 1.222.738 1.803l1.561-.443zM14.144 18.656a.336.336 0 0 0-.333.351.34.34 0 0 0 .354.334.348.348 0 0 0 .334-.352.347.347 0 0 0-.355-.333zM19.065 29.721a.686.686 0 0 1-.514.368l-1.717.245a6.008 6.008 0 0 0 1.691.247 6.03 6.03 0 0 0 2.267-.458l-1.447-.967-.28.565z"></path><path d="M25.813 26.72l-2.652-.263a.667.667 0 0 1-.314-.114l-1.787-1.218-2.364.501a.629.629 0 0 1-.193.013l-2.558-.195-1.517 1.365a.666.666 0 0 1-.27.146l-2.751.78a.698.698 0 0 1-.363.002l1.603 1.82 5.359-.766.466-.934a.689.689 0 0 1 .434-.354.65.65 0 0 1 .554.093l2.022 1.351 4.502-1.039.955-1.544-.813.312a.676.676 0 0 1-.313.044zM28.026 13.846h-.01a.679.679 0 0 1-.398-.132 29.97 29.97 0 0 0-5.467-1.162.68.68 0 0 1-.596-.755.662.662 0 0 1 .756-.596 31.38 31.38 0 0 1 4.759.933c-1.08-3.277-4.539-5.63-8.524-5.63-3.979 0-7.441 2.353-8.523 5.627a31.452 31.452 0 0 1 4.32-.875.682.682 0 0 1 .177 1.351 29.917 29.917 0 0 0-5.116 1.128.612.612 0 0 1-.217.068c-.568.184-1.133.385-1.688.604-.065.306-.103.768-.036 1.444.047.468.135.878.263 1.226 7.015-1.771 14.605-1.773 21.635-.002.128-.347.216-.756.263-1.224.059-.576.045-1.068-.035-1.444a29.717 29.717 0 0 0-1.563-.561zm-7.36-.709v1.7a.682.682 0 0 1-.681.681h-2.784a.682.682 0 0 1-.681-.681v-1.7a.68.68 0 0 1 .539-.666v-1.028h-1.268a.682.682 0 0 1-.681-.681V8.513c0-.376.306-.681.681-.681h5.604c.376 0 .681.305.681.681v2.249a.681.681 0 0 1-.681.681h-1.272v1.028a.68.68 0 0 1 .543.666z"></path><path d="M20.483 10.081h.232v-.888h-4.243v.888h.229a.68.68 0 0 1 .68-.655h.358c.376 0 .681.305.681.681v3.03c0 .328-.23.602-.539.666v.354h1.424v-.354a.68.68 0 0 1-.543-.666v-3.03c0-.376.305-.681.681-.681h.359a.68.68 0 0 1 .681.655z"></path><path d="M18.423 0C8.248 0 0 8.248 0 18.424c0 10.174 8.248 18.422 18.423 18.422s18.423-8.248 18.423-18.422C36.846 8.248 28.598 0 18.423 0zm12.553 15.986c-.088.887-.309 1.639-.652 2.23a.674.674 0 0 1-.764.314l-.189-.049L28.368 22a.677.677 0 0 1-.274.406l-.729.507a.682.682 0 0 1 .003.202 11.157 11.157 0 0 1-.386 1.775l1.355-.521a.679.679 0 0 1 .823.992l-2.17 3.504a.673.673 0 0 1-.425.305l-2.685.62c-1.521 1.345-3.393 2.151-5.354 2.151-1.52 0-2.919-.475-4.139-1.26l-1.913.273a.683.683 0 0 1-.607-.223L8.06 26.406a.68.68 0 0 1 .776-1.078l1.692.718a10.769 10.769 0 0 1-.77-2.47.652.652 0 0 1 0-.229l-.79-.597a.681.681 0 0 1-.263-.449L8.048 18.4c-.176.045-.35.088-.523.135a.678.678 0 0 1-.764-.317c-.346-.594-.564-1.346-.652-2.234-.094-.944-.03-1.728.191-2.322a.671.671 0 0 1 .383-.396 30.033 30.033 0 0 1 1.807-.667c.9-4.281 5.143-7.457 10.057-7.457 4.924 0 9.158 3.175 10.059 7.461.605.202 1.205.422 1.795.66a.683.683 0 0 1 .383.393c.222.6.287 1.382.192 2.33z"></path><path d="M9.374 18.088l.641 3.749 1.428 1.079 4.476-1.031.902-2.531a.691.691 0 0 1 .243-.322c.076-.055.771-.54 1.633-.54 1.018 0 1.457.655 1.506.73l.903 2.575 4.576.627 1.42-.985.946-3.277a43.464 43.464 0 0 0-18.674-.074zm4.602 2.809h-.191c-.078 0-.146.004-.218 0-.655 0-1.073-.027-1.444.169.012-.021.177-.381.76-.531a1.729 1.729 0 0 1-.117-.619c-.037-1.053.613-1.92 1.285-1.928.674-.004 1.14.851 1.156 1.906.006 1.062-.555.995-1.231 1.003zm9.195-3.168c.675-.02 1.289.814 1.369 1.867.023.293-.01.509-.08.663.623-.075.767.352.773.374-.454-.218-.951.062-1.852.076-.68.023-1.237.032-1.278-1.024-.039-1.059.398-1.931 1.068-1.956z"></path></g></svg>
